# Exported from Wings 3D 1.4.1
mtllib light_khaki_bldg_half.mtl
o cube1
#8 vertices, 6 faces
v -0.50000000 0.0000000e+0 0.50000000
v -0.50000000 0.50000000 0.50000000
v 0.50000000 0.50000000 0.50000000
v 0.50000000 0.0000000e+0 0.50000000
v -0.50000000 0.0000000e+0 -0.50000000
v -0.50000000 0.50000000 -0.50000000
v 0.50000000 0.50000000 -0.50000000
v 0.50000000 0.0000000e+0 -0.50000000
vt 0.0000000e+0 0.0000000e+0
vt 0.0000000e+0 5.5511151e-17
vt 0.0000000e+0 1.00000000
vt 0.0000000e+0 1.00000000
vt 0.0000000e+0 1.00000000
vt 5.5511151e-17 0.0000000e+0
vt 1.1102230e-16 0.0000000e+0
vt 1.1102230e-16 1.00000000
vt 2.2204460e-16 0.0000000e+0
vt 1.00000000 1.00000000
vt 1.00000000 1.00000000
vt 1.00000000 2.2204460e-16
vt 1.00000000 0.0000000e+0
vt 1.00000000 1.1102230e-16
vt 1.00000000 1.6653345e-16
vt 1.00000000 1.00000000
vn -0.57735027 -0.57735027 0.57735027
vn -0.57735027 0.57735027 0.57735027
vn 0.57735027 0.57735027 0.57735027
vn 0.57735027 -0.57735027 0.57735027
vn -0.57735027 -0.57735027 -0.57735027
vn -0.57735027 0.57735027 -0.57735027
vn 0.57735027 0.57735027 -0.57735027
vn 0.57735027 -0.57735027 -0.57735027
g cube1_cube1_auv
usemtl cube1_auv
s 1
f 1/2/1 4/13/4 3/16/3 2/8/2
f 1/14/1 5/16/5 8/5/8 4/6/4
f 2/16/2 6/5/6 5/6/5 1/14/1
f 3/12/3 7/11/7 6/4/6 2/7/2
f 4/9/4 8/15/8 7/10/7 3/3/3
f 6/16/6 7/5/7 8/1/8 5/13/5
