# Exported from Wings 3D 1.4.1
mtllib FloorTexture.mtl
o Regular Plane1
#98 vertices, 76 faces
v -0.70699632 1.7674908e-2 -0.70699632
v -0.70699632 1.7674908e-2 -0.47133088
v -0.70699632 1.7674908e-2 -0.23566544
v -0.70699632 1.7674908e-2 0.0000000e+0
v -0.70699632 1.7674908e-2 0.23566544
v -0.70699632 1.7674908e-2 0.47133088
v -0.70699632 1.7674908e-2 0.70699632
v -0.47133088 1.7674908e-2 -0.70699632
v -0.47133088 1.7674908e-2 -0.47133088
v -0.47133088 1.7674908e-2 -0.23566544
v -0.47133088 1.7674908e-2 0.0000000e+0
v -0.47133088 1.7674908e-2 0.23566544
v -0.47133088 1.7674908e-2 0.47133088
v -0.47133088 1.7674908e-2 0.70699632
v -0.23566544 1.7674908e-2 -0.70699632
v -0.23566544 1.7674908e-2 -0.47133088
v -0.23566544 1.7674908e-2 -0.23566544
v -0.23566544 1.7674908e-2 0.0000000e+0
v -0.23566544 1.7674908e-2 0.23566544
v -0.23566544 1.7674908e-2 0.47133088
v -0.23566544 1.7674908e-2 0.70699632
v 0.0000000e+0 1.7674908e-2 -0.70699632
v 0.0000000e+0 1.7674908e-2 -0.47133088
v 0.0000000e+0 1.7674908e-2 -0.23566544
v 0.0000000e+0 1.7674908e-2 0.0000000e+0
v 0.0000000e+0 1.7674908e-2 0.23566544
v 0.0000000e+0 1.7674908e-2 0.47133088
v 0.0000000e+0 1.7674908e-2 0.70699632
v 0.23566544 1.7674908e-2 -0.70699632
v 0.23566544 1.7674908e-2 -0.47133088
v 0.23566544 1.7674908e-2 -0.23566544
v 0.23566544 1.7674908e-2 0.0000000e+0
v 0.23566544 1.7674908e-2 0.23566544
v 0.23566544 1.7674908e-2 0.47133088
v 0.23566544 1.7674908e-2 0.70699632
v 0.47133088 1.7674908e-2 -0.70699632
v 0.47133088 1.7674908e-2 -0.47133088
v 0.47133088 1.7674908e-2 -0.23566544
v 0.47133088 1.7674908e-2 0.0000000e+0
v 0.47133088 1.7674908e-2 0.23566544
v 0.47133088 1.7674908e-2 0.47133088
v 0.47133088 1.7674908e-2 0.70699632
v 0.70699632 1.7674908e-2 -0.70699632
v 0.70699632 1.7674908e-2 -0.47133088
v 0.70699632 1.7674908e-2 -0.23566544
v 0.70699632 1.7674908e-2 0.0000000e+0
v 0.70699632 1.7674908e-2 0.23566544
v 0.70699632 1.7674908e-2 0.47133088
v 0.70699632 1.7674908e-2 0.70699632
v -0.70699632 -1.7674908e-2 -0.70699632
v -0.70699632 -1.7674908e-2 -0.47133088
v -0.70699632 -1.7674908e-2 -0.23566544
v -0.70699632 -1.7674908e-2 0.0000000e+0
v -0.70699632 -1.7674908e-2 0.23566544
v -0.70699632 -1.7674908e-2 0.47133088
v -0.70699632 -1.7674908e-2 0.70699632
v -0.47133088 -1.7674908e-2 -0.70699632
v -0.47133088 -1.7674908e-2 -0.47133088
v -0.47133088 -1.7674908e-2 -0.23566544
v -0.47133088 -1.7674908e-2 0.0000000e+0
v -0.47133088 -1.7674908e-2 0.23566544
v -0.47133088 -1.7674908e-2 0.47133088
v -0.47133088 -1.7674908e-2 0.70699632
v -0.23566544 -1.7674908e-2 -0.70699632
v -0.23566544 -1.7674908e-2 -0.47133088
v -0.23566544 -1.7674908e-2 -0.23566544
v -0.23566544 -1.7674908e-2 0.0000000e+0
v -0.23566544 -1.7674908e-2 0.23566544
v -0.23566544 -1.7674908e-2 0.47133088
v -0.23566544 -1.7674908e-2 0.70699632
v 0.0000000e+0 -1.7674908e-2 -0.70699632
v 0.0000000e+0 -1.7674908e-2 -0.47133088
v 0.0000000e+0 -1.7674908e-2 -0.23566544
v 0.0000000e+0 -1.7674908e-2 0.0000000e+0
v 0.0000000e+0 -1.7674908e-2 0.23566544
v 0.0000000e+0 -1.7674908e-2 0.47133088
v 0.0000000e+0 -1.7674908e-2 0.70699632
v 0.23566544 -1.7674908e-2 -0.70699632
v 0.23566544 -1.7674908e-2 -0.47133088
v 0.23566544 -1.7674908e-2 -0.23566544
v 0.23566544 -1.7674908e-2 0.0000000e+0
v 0.23566544 -1.7674908e-2 0.23566544
v 0.23566544 -1.7674908e-2 0.47133088
v 0.23566544 -1.7674908e-2 0.70699632
v 0.47133088 -1.7674908e-2 -0.70699632
v 0.47133088 -1.7674908e-2 -0.47133088
v 0.47133088 -1.7674908e-2 -0.23566544
v 0.47133088 -1.7674908e-2 0.0000000e+0
v 0.47133088 -1.7674908e-2 0.23566544
v 0.47133088 -1.7674908e-2 0.47133088
v 0.47133088 -1.7674908e-2 0.70699632
v 0.70699632 -1.7674908e-2 -0.70699632
v 0.70699632 -1.7674908e-2 -0.47133088
v 0.70699632 -1.7674908e-2 -0.23566544
v 0.70699632 -1.7674908e-2 0.0000000e+0
v 0.70699632 -1.7674908e-2 0.23566544
v 0.70699632 -1.7674908e-2 0.47133088
v 0.70699632 -1.7674908e-2 0.70699632
vt 3.6630227e-2 0.42403131
vt 3.7082687e-2 0.40829549
vt 4.4680955e-2 0.41640180
vt 8.7332954e-2 0.47748003
vt 9.1216440e-2 0.35787718
vt 9.5265984e-2 0.46977309
vt 9.8498063e-2 0.36618799
vt 0.13952448 0.53002836
vt 0.14511832 0.31220242
vt 0.14723268 0.52207101
vt 0.14736572 0.41926287
vt 0.15186041 0.32003072
vt 0.19366591 0.58088377
vt 0.19639319 0.26840709
vt 0.19754955 0.47003229
vt 0.19814927 0.37105811
vt 0.20106223 0.57261185
vt 0.20288949 0.27589308
vt 0.24513447 0.22596501
vt 0.24623491 0.42015131
vt 0.24720724 0.32493025
vt 0.24935495 0.51868462
vt 0.25022620 0.62900879
vt 0.25144743 0.23311348
vt 0.25719712 0.62044632
vt 0.29212614 0.18392752
vt 0.29332304 0.37233602
vt 0.29446715 0.28043379
vt 0.29591780 0.46717881
vt 0.29838221 0.19091843
vt 0.30289023 0.56491551
vt 0.30809825 0.67431779
vt 0.31468792 0.66558111
vt 0.33846047 0.14264935
vt 0.33896324 0.32643938
vt 0.34045512 0.23721414
vt 0.34096229 0.41789689
vt 0.34458166 0.14958749
vt 0.34710479 0.51192719
vt 0.35147975 0.14347076
vt 0.35786997 0.60864321
vt 0.36710308 0.71704089
vt 0.37357274 0.70817534
vt 0.38278447 0.71437602
vt 0.38340808 0.28224632
vt 0.38465468 0.37074141
vt 0.38556303 0.19525803
vt 0.38995363 0.46133134
vt 0.39231331 0.18907992
vt 0.39965750 0.55428309
vt 0.41424421 0.64979312
vt 0.42280055 0.65573265
vt 0.42713337 0.23965649
vt 0.42722522 0.32560671
vt 0.43142264 0.41292636
vt 0.43366077 0.23339730
vt 0.44017337 0.50229076
vt 0.44333762 0.75296062
vt 0.45348249 0.59415070
vt 0.46163819 0.59993327
vt 0.46906759 0.28255606
vt 0.47177053 0.36688304
vt 0.47534192 0.27628364
vt 0.47931174 0.45274965
vt 0.48052041 0.69369420
vt 0.49177060 0.54079898
vt 0.49954833 0.54638929
vt 0.50400584 0.78885668
vt 0.51113345 0.32332553
vt 0.51689664 0.63683024
vt 0.51697683 0.31706201
vt 0.51722619 0.40551412
vt 0.52833528 0.48997323
vt 0.53577374 0.49535728
vt 0.53882624 0.72919104
vt 0.55236861 0.58221369
vt 0.55390715 0.36096333
vt 0.55932911 0.35446347
vt 0.56391533 0.44146044
vt 0.56468798 0.82270429
vt 0.57100360 0.44662765
vt 0.57305936 0.67147981
vt 0.58646384 0.52978549
vt 0.59771936 0.76273348
vt 0.59799252 0.39567189
vt 0.60323019 0.38912247
vt 0.60453051 0.40050506
vt 0.60642649 0.61577525
vt 0.61923792 0.47957663
vt 0.62547504 0.85502433
vt 0.63021184 0.70426528
vt 0.63847510 0.56199435
vt 0.65019421 0.43168636
vt 0.65715667 0.79464386
vt 0.66180288 0.64741316
vt 0.66912451 0.51020072
vt 0.68649861 0.88604870
vt 0.68826578 0.73543469
vt 0.69211900 0.59227415
vt 0.69785946 0.46041607
vt 0.71716649 0.82538293
vt 0.71842971 0.67747041
vt 0.72092555 0.53881581
vt 0.74727245 0.62087329
vt 0.74730734 0.76535617
vt 0.74752086 0.91635878
vt 0.74782625 0.48696876
vt 0.77450623 0.56572144
vt 0.77637771 0.70616048
vt 0.77779636 0.85536743
vt 0.80002132 0.51198919
vt 0.80395865 0.64806032
vt 0.80741938 0.79444658
vt 0.82980562 0.59120745
vt 0.83575004 0.73393176
vt 0.85422808 0.53594776
vt 0.86237883 0.67400005
vt 0.88666014 0.61503352
vt 0.90995164 0.55931729
vn -0.57735027 0.57735027 -0.57735027
vn -0.44721360 0.89442719 0.0000000e+0
vn -0.44721360 0.89442719 0.0000000e+0
vn -0.44721360 0.89442719 0.0000000e+0
vn -0.44721360 0.89442719 0.0000000e+0
vn -0.44721360 0.89442719 0.0000000e+0
vn -0.57735027 0.57735027 0.57735027
vn 0.0000000e+0 0.89442719 -0.44721360
vn 0.0000000e+0 1.00000000 0.0000000e+0
vn 0.0000000e+0 1.00000000 0.0000000e+0
vn 0.0000000e+0 1.00000000 0.0000000e+0
vn 0.0000000e+0 1.00000000 0.0000000e+0
vn 0.0000000e+0 1.00000000 0.0000000e+0
vn 0.0000000e+0 0.89442719 0.44721360
vn 0.0000000e+0 0.89442719 -0.44721360
vn 0.0000000e+0 1.00000000 0.0000000e+0
vn 0.0000000e+0 1.00000000 0.0000000e+0
vn 0.0000000e+0 1.00000000 0.0000000e+0
vn 0.0000000e+0 1.00000000 0.0000000e+0
vn 0.0000000e+0 1.00000000 0.0000000e+0
vn 0.0000000e+0 0.89442719 0.44721360
vn 0.0000000e+0 0.89442719 -0.44721360
vn 0.0000000e+0 1.00000000 0.0000000e+0
vn 0.0000000e+0 1.00000000 0.0000000e+0
vn 0.0000000e+0 1.00000000 0.0000000e+0
vn 0.0000000e+0 1.00000000 0.0000000e+0
vn 0.0000000e+0 1.00000000 0.0000000e+0
vn 0.0000000e+0 0.89442719 0.44721360
vn 0.0000000e+0 0.89442719 -0.44721360
vn 0.0000000e+0 1.00000000 0.0000000e+0
vn 0.0000000e+0 1.00000000 0.0000000e+0
vn 0.0000000e+0 1.00000000 0.0000000e+0
vn 0.0000000e+0 1.00000000 0.0000000e+0
vn 0.0000000e+0 1.00000000 0.0000000e+0
vn 0.0000000e+0 0.89442719 0.44721360
vn 0.0000000e+0 0.89442719 -0.44721360
vn 0.0000000e+0 1.00000000 0.0000000e+0
vn 0.0000000e+0 1.00000000 0.0000000e+0
vn 0.0000000e+0 1.00000000 0.0000000e+0
vn 0.0000000e+0 1.00000000 0.0000000e+0
vn 0.0000000e+0 1.00000000 0.0000000e+0
vn 0.0000000e+0 0.89442719 0.44721360
vn 0.57735027 0.57735027 -0.57735027
vn 0.44721360 0.89442719 0.0000000e+0
vn 0.44721360 0.89442719 0.0000000e+0
vn 0.44721360 0.89442719 0.0000000e+0
vn 0.44721360 0.89442719 0.0000000e+0
vn 0.44721360 0.89442719 0.0000000e+0
vn 0.57735027 0.57735027 0.57735027
vn -0.57735027 -0.57735027 -0.57735027
vn -0.44721360 -0.89442719 0.0000000e+0
vn -0.44721360 -0.89442719 0.0000000e+0
vn -0.44721360 -0.89442719 0.0000000e+0
vn -0.44721360 -0.89442719 0.0000000e+0
vn -0.44721360 -0.89442719 0.0000000e+0
vn -0.57735027 -0.57735027 0.57735027
vn 0.0000000e+0 -0.89442719 -0.44721360
vn 0.0000000e+0 -1.00000000 0.0000000e+0
vn 0.0000000e+0 -1.00000000 0.0000000e+0
vn 0.0000000e+0 -1.00000000 0.0000000e+0
vn 0.0000000e+0 -1.00000000 0.0000000e+0
vn 0.0000000e+0 -1.00000000 0.0000000e+0
vn 0.0000000e+0 -0.89442719 0.44721360
vn 0.0000000e+0 -0.89442719 -0.44721360
vn 0.0000000e+0 -1.00000000 0.0000000e+0
vn 0.0000000e+0 -1.00000000 0.0000000e+0
vn 0.0000000e+0 -1.00000000 0.0000000e+0
vn 0.0000000e+0 -1.00000000 0.0000000e+0
vn 0.0000000e+0 -1.00000000 0.0000000e+0
vn 0.0000000e+0 -0.89442719 0.44721360
vn 0.0000000e+0 -0.89442719 -0.44721360
vn 0.0000000e+0 -1.00000000 0.0000000e+0
vn 0.0000000e+0 -1.00000000 0.0000000e+0
vn 0.0000000e+0 -1.00000000 0.0000000e+0
vn 0.0000000e+0 -1.00000000 0.0000000e+0
vn 0.0000000e+0 -1.00000000 0.0000000e+0
vn 0.0000000e+0 -0.89442719 0.44721360
vn 0.0000000e+0 -0.89442719 -0.44721360
vn 0.0000000e+0 -1.00000000 0.0000000e+0
vn 0.0000000e+0 -1.00000000 0.0000000e+0
vn 0.0000000e+0 -1.00000000 0.0000000e+0
vn 0.0000000e+0 -1.00000000 0.0000000e+0
vn 0.0000000e+0 -1.00000000 0.0000000e+0
vn 0.0000000e+0 -0.89442719 0.44721360
vn 0.0000000e+0 -0.89442719 -0.44721360
vn 0.0000000e+0 -1.00000000 0.0000000e+0
vn 0.0000000e+0 -1.00000000 0.0000000e+0
vn 0.0000000e+0 -1.00000000 0.0000000e+0
vn 0.0000000e+0 -1.00000000 0.0000000e+0
vn 0.0000000e+0 -1.00000000 0.0000000e+0
vn 0.0000000e+0 -0.89442719 0.44721360
vn 0.57735027 -0.57735027 -0.57735027
vn 0.44721360 -0.89442719 0.0000000e+0
vn 0.44721360 -0.89442719 0.0000000e+0
vn 0.44721360 -0.89442719 0.0000000e+0
vn 0.44721360 -0.89442719 0.0000000e+0
vn 0.44721360 -0.89442719 0.0000000e+0
vn 0.57735027 -0.57735027 0.57735027
g Regular Plane1_Regular Plane1_auv
usemtl Regular Plane1_auv
s 1
f 1/44/1 50/43/50 51/51/51 52/59/52 53/66/53 54/73/54 55/79/55 56/85/56 7/87/7 6/81/6 5/74/5 4/67/4 3/60/3 2/52/2
f 2/52/2 9/65/9 8/58/8 1/44/1
f 3/60/3 10/70/10 9/65/9 2/52/2
f 4/67/4 11/76/11 10/70/10 3/60/3
f 5/74/5 12/83/12 11/76/11 4/67/4
f 6/81/6 13/89/13 12/83/12 5/74/5
f 7/87/7 14/93/14 13/89/13 6/81/6
f 7/86/7 56/85/56 63/77/63 70/69/70 77/61/77 84/53/84 91/47/91 98/38/98 49/40/49 42/49/42 35/56/35 28/63/28 21/71/21 14/78/14
f 8/32/8 15/23/15 22/13/22 29/8/29 36/4/36 43/1/43 92/3/92 85/6/85 78/10/78 71/17/71 64/25/64 57/33/57 50/43/50 1/42/1
f 9/65/9 16/75/16 15/68/15 8/58/8
f 10/70/10 17/82/17 16/75/16 9/65/9
f 11/76/11 18/88/18 17/82/17 10/70/10
f 12/83/12 19/92/19 18/88/18 11/76/11
f 13/89/13 20/96/20 19/92/19 12/83/12
f 14/93/14 21/100/21 20/96/20 13/89/13
f 16/75/16 23/84/23 22/80/22 15/68/15
f 17/82/17 24/91/24 23/84/23 16/75/16
f 18/88/18 25/95/25 24/91/24 17/82/17
f 19/92/19 26/99/26 25/95/25 18/88/18
f 20/96/20 27/103/27 26/99/26 19/92/19
f 21/100/21 28/107/28 27/103/27 20/96/20
f 23/84/23 30/94/30 29/90/29 22/80/22
f 24/91/24 31/98/31 30/94/30 23/84/23
f 25/95/25 32/102/32 31/98/31 24/91/24
f 26/99/26 33/104/33 32/102/32 25/95/25
f 27/103/27 34/108/34 33/104/33 26/99/26
f 28/107/28 35/111/35 34/108/34 27/103/27
f 30/94/30 37/101/37 36/97/36 29/90/29
f 31/98/31 38/105/38 37/101/37 30/94/30
f 32/102/32 39/109/39 38/105/38 31/98/31
f 33/104/33 40/112/40 39/109/39 32/102/32
f 34/108/34 41/114/41 40/112/40 33/104/33
f 35/111/35 42/116/42 41/114/41 34/108/34
f 37/101/37 44/110/44 43/106/43 36/97/36
f 38/105/38 45/113/45 44/110/44 37/101/37
f 39/109/39 46/115/46 45/113/45 38/105/38
f 40/112/40 47/117/47 46/115/46 39/109/39
f 41/114/41 48/118/48 47/117/47 40/112/40
f 42/116/42 49/119/49 48/118/48 41/114/41
f 44/5/44 45/9/45 46/14/46 47/19/47 48/26/48 49/34/49 98/38/98 97/30/97 96/24/96 95/18/95 94/12/94 93/7/93 92/3/92 43/2/43
f 50/43/50 57/33/57 58/41/58 51/51/51
f 51/51/51 58/41/58 59/50/59 52/59/52
f 52/59/52 59/50/59 60/57/60 53/66/53
f 53/66/53 60/57/60 61/64/61 54/73/54
f 54/73/54 61/64/61 62/72/62 55/79/55
f 55/79/55 62/72/62 63/77/63 56/85/56
f 57/33/57 64/25/64 65/31/65 58/41/58
f 58/41/58 65/31/65 66/39/66 59/50/59
f 59/50/59 66/39/66 67/48/67 60/57/60
f 60/57/60 67/48/67 68/55/68 61/64/61
f 61/64/61 68/55/68 69/62/69 62/72/62
f 62/72/62 69/62/69 70/69/70 63/77/63
f 64/25/64 71/17/71 72/22/72 65/31/65
f 65/31/65 72/22/72 73/29/73 66/39/66
f 66/39/66 73/29/73 74/37/74 67/48/67
f 67/48/67 74/37/74 75/46/75 68/55/68
f 68/55/68 75/46/75 76/54/76 69/62/69
f 69/62/69 76/54/76 77/61/77 70/69/70
f 71/17/71 78/10/78 79/15/79 72/22/72
f 72/22/72 79/15/79 80/20/80 73/29/73
f 73/29/73 80/20/80 81/27/81 74/37/74
f 74/37/74 81/27/81 82/35/82 75/46/75
f 75/46/75 82/35/82 83/45/83 76/54/76
f 76/54/76 83/45/83 84/53/84 77/61/77
f 78/10/78 85/6/85 86/11/86 79/15/79
f 79/15/79 86/11/86 87/16/87 80/20/80
f 80/20/80 87/16/87 88/21/88 81/27/81
f 81/27/81 88/21/88 89/28/89 82/35/82
f 82/35/82 89/28/89 90/36/90 83/45/83
f 83/45/83 90/36/90 91/47/91 84/53/84
f 85/6/85 92/3/92 93/7/93 86/11/86
f 86/11/86 93/7/93 94/12/94 87/16/87
f 87/16/87 94/12/94 95/18/95 88/21/88
f 88/21/88 95/18/95 96/24/96 89/28/89
f 89/28/89 96/24/96 97/30/97 90/36/90
f 90/36/90 97/30/97 98/38/98 91/47/91
