# This file uses centimeters as units for non-parametric coordinates.

mtllib Brain_AI.mtl
g default
v 0.106066 0.618886 -0.106066
v 0.000000 0.618886 -0.150000
v -0.106066 0.618886 -0.106066
v -0.150000 0.618886 0.000000
v -0.106066 0.618886 0.106066
v 0.000000 0.618886 0.150000
v 0.106066 0.618886 0.106066
v 0.150000 0.618886 0.000000
v 0.106066 5.618886 -0.106066
v 0.000000 5.618886 -0.150000
v -0.106066 5.618886 -0.106066
v -0.150000 5.618886 0.000000
v -0.106066 5.618886 0.106066
v 0.000000 5.618886 0.150000
v 0.106066 5.618886 0.106066
v 0.150000 5.618886 0.000000
v 0.000000 0.618886 0.000000
v 0.000000 5.618886 0.000000
vt 0.610485 0.045765
vt 0.500000 0.000000
vt 0.389515 0.045765
vt 0.343750 0.156250
vt 0.389515 0.266735
vt 0.500000 0.312500
vt 0.610485 0.266735
vt 0.656250 0.156250
vt 0.375000 0.312500
vt 0.406250 0.312500
vt 0.437500 0.312500
vt 0.468750 0.312500
vt 0.500000 0.312500
vt 0.531250 0.312500
vt 0.562500 0.312500
vt 0.593750 0.312500
vt 0.625000 0.312500
vt 0.375000 0.688440
vt 0.406250 0.688440
vt 0.437500 0.688440
vt 0.468750 0.688440
vt 0.500000 0.688440
vt 0.531250 0.688440
vt 0.562500 0.688440
vt 0.593750 0.688440
vt 0.625000 0.688440
vt 0.610485 0.733265
vt 0.500000 0.687500
vt 0.389515 0.733265
vt 0.343750 0.843750
vt 0.389515 0.954235
vt 0.500000 1.000000
vt 0.610485 0.954235
vt 0.656250 0.843750
vt 0.500000 0.150000
vt 0.500000 0.837500
vn 0.382683 0.000000 -0.923880
vn 0.382683 0.000000 -0.923880
vn 0.382683 0.000000 -0.923880
vn 0.382683 0.000000 -0.923880
vn -0.382683 0.000000 -0.923880
vn -0.382683 0.000000 -0.923880
vn -0.382683 0.000000 -0.923880
vn -0.382683 0.000000 -0.923880
vn -0.923880 0.000000 -0.382683
vn -0.923880 0.000000 -0.382683
vn -0.923880 0.000000 -0.382683
vn -0.923880 0.000000 -0.382683
vn -0.923880 0.000000 0.382683
vn -0.923880 0.000000 0.382683
vn -0.923880 0.000000 0.382683
vn -0.923880 0.000000 0.382683
vn -0.382683 0.000000 0.923880
vn -0.382683 0.000000 0.923880
vn -0.382683 0.000000 0.923880
vn -0.382683 0.000000 0.923880
vn 0.382683 0.000000 0.923880
vn 0.382683 0.000000 0.923880
vn 0.382683 0.000000 0.923880
vn 0.382683 0.000000 0.923880
vn 0.923880 0.000000 0.382684
vn 0.923880 0.000000 0.382684
vn 0.923880 0.000000 0.382684
vn 0.923880 0.000000 0.382684
vn 0.923880 0.000000 -0.382684
vn 0.923880 0.000000 -0.382684
vn 0.923880 0.000000 -0.382684
vn 0.923880 0.000000 -0.382684
vn 0.000000 -1.000000 0.000000
vn 0.000000 -1.000000 0.000000
vn 0.000000 -1.000000 0.000000
vn 0.000000 -1.000000 0.000002
vn 0.000000 -1.000000 0.000002
vn 0.000000 -1.000000 0.000000
vn 0.000000 -1.000000 0.000000
vn 0.000000 -1.000000 0.000000
vn 0.000000 -1.000000 0.000000
vn 0.000000 1.000000 0.000000
vn 0.000000 1.000000 0.000000
vn 0.000000 1.000000 -0.000000
vn 0.000000 1.000000 0.000000
vn 0.000000 1.000000 -0.000002
vn 0.000000 1.000000 -0.000002
vn 0.000000 1.000000 0.000000
vn 0.000000 1.000000 0.000000
vn 0.000000 1.000000 0.000000
s off
g pCylinder1
usemtl blinn11SG
f 1/9/1 2/10/2 10/19/3 9/18/4
f 2/10/5 3/11/6 11/20/7 10/19/8
f 3/11/9 4/12/10 12/21/11 11/20/12
f 4/12/13 5/13/14 13/22/15 12/21/16
f 5/13/17 6/14/18 14/23/19 13/22/20
f 6/14/21 7/15/22 15/24/23 14/23/24
f 7/15/25 8/16/26 16/25/27 15/24/28
f 8/16/29 1/17/30 9/26/31 16/25/32
s 1
f 2/2/33 1/1/34 17/35/35
f 3/3/36 2/2/33 17/35/35
f 4/4/37 3/3/36 17/35/35
f 5/5/38 4/4/37 17/35/35
f 6/6/39 5/5/38 17/35/35
f 7/7/40 6/6/39 17/35/35
f 8/8/41 7/7/40 17/35/35
f 1/1/34 8/8/41 17/35/35
s 2
f 9/33/42 10/32/43 18/36/44
f 10/32/43 11/31/45 18/36/44
f 11/31/45 12/30/46 18/36/44
f 12/30/46 13/29/47 18/36/44
f 13/29/47 14/28/48 18/36/44
f 14/28/48 15/27/49 18/36/44
f 15/27/49 16/34/50 18/36/44
f 16/34/50 9/33/42 18/36/44
g default
v 1.587016 -1.035207 -1.481489
v 6.412984 -1.035207 -1.481489
v 1.587016 1.035207 -1.481489
v 6.412984 1.035207 -1.481489
v 1.587016 1.035207 -6.518511
v 6.412985 1.035207 -6.518511
v 1.587016 -1.035207 -6.518511
v 6.412985 -1.035207 -6.518511
vt 0.375000 0.000000
vt 0.625000 0.000000
vt 0.375000 0.250000
vt 0.625000 0.250000
vt 0.375000 0.500000
vt 0.625000 0.500000
vt 0.375000 0.750000
vt 0.625000 0.750000
vt 0.375000 1.000000
vt 0.625000 1.000000
vt 0.875000 0.000000
vt 0.875000 0.250000
vt 0.125000 0.000000
vt 0.125000 0.250000
vn 0.000000 0.000000 1.000000
vn 0.000000 0.000000 1.000000
vn 0.000000 0.000000 1.000000
vn 0.000000 0.000000 1.000000
vn 0.000000 1.000000 -0.000000
vn 0.000000 1.000000 -0.000000
vn 0.000000 1.000000 -0.000000
vn 0.000000 1.000000 -0.000000
vn 0.000000 0.000000 -1.000000
vn 0.000000 0.000000 -1.000000
vn 0.000000 0.000000 -1.000000
vn 0.000000 0.000000 -1.000000
vn 0.000000 -1.000000 -0.000000
vn 0.000000 -1.000000 -0.000000
vn 0.000000 -1.000000 -0.000000
vn 0.000000 -1.000000 -0.000000
vn 1.000000 0.000000 0.000000
vn 1.000000 0.000000 0.000000
vn 1.000000 0.000000 0.000000
vn 1.000000 0.000000 0.000000
vn -1.000000 0.000000 -0.000000
vn -1.000000 0.000000 -0.000000
vn -1.000000 0.000000 -0.000000
vn -1.000000 0.000000 -0.000000
s off
g pasted__pCube1 group
usemtl blinn8SG
f 19/37/51 20/38/52 22/40/53 21/39/54
f 21/39/55 22/40/56 24/42/57 23/41/58
f 23/41/59 24/42/60 26/44/61 25/43/62
f 25/43/63 26/44/64 20/46/65 19/45/66
f 20/38/67 26/47/68 24/48/69 22/40/70
f 25/49/71 19/37/72 21/39/73 23/50/74
g default
v 1.587016 -1.035207 6.518511
v 6.412984 -1.035207 6.518511
v 1.587016 1.035207 6.518511
v 6.412984 1.035207 6.518511
v 1.587016 1.035207 1.481489
v 6.412985 1.035207 1.481489
v 1.587016 -1.035207 1.481489
v 6.412985 -1.035207 1.481489
vt 0.375000 0.000000
vt 0.625000 0.000000
vt 0.375000 0.250000
vt 0.625000 0.250000
vt 0.375000 0.500000
vt 0.625000 0.500000
vt 0.375000 0.750000
vt 0.625000 0.750000
vt 0.375000 1.000000
vt 0.625000 1.000000
vt 0.875000 0.000000
vt 0.875000 0.250000
vt 0.125000 0.000000
vt 0.125000 0.250000
vn 0.000000 0.000000 1.000000
vn 0.000000 0.000000 1.000000
vn 0.000000 0.000000 1.000000
vn 0.000000 0.000000 1.000000
vn 0.000000 1.000000 0.000000
vn 0.000000 1.000000 0.000000
vn 0.000000 1.000000 0.000000
vn 0.000000 1.000000 0.000000
vn 0.000000 0.000000 -1.000000
vn 0.000000 0.000000 -1.000000
vn 0.000000 0.000000 -1.000000
vn 0.000000 0.000000 -1.000000
vn 0.000000 -1.000000 0.000000
vn 0.000000 -1.000000 0.000000
vn 0.000000 -1.000000 0.000000
vn 0.000000 -1.000000 0.000000
vn 1.000000 0.000000 0.000000
vn 1.000000 0.000000 0.000000
vn 1.000000 0.000000 0.000000
vn 1.000000 0.000000 0.000000
vn -1.000000 0.000000 -0.000000
vn -1.000000 0.000000 -0.000000
vn -1.000000 0.000000 -0.000000
vn -1.000000 0.000000 -0.000000
s off
g group pasted__pCube2
usemtl blinn8SG
f 27/51/75 28/52/76 30/54/77 29/53/78
f 29/53/79 30/54/80 32/56/81 31/55/82
f 31/55/83 32/56/84 34/58/85 33/57/86
f 33/57/87 34/58/88 28/60/89 27/59/90
f 28/52/91 34/61/92 32/62/93 30/54/94
f 33/63/95 27/51/96 29/53/97 31/64/98
g default
v -6.412984 -1.035207 6.518511
v -1.587016 -1.035207 6.518511
v -6.412984 1.035207 6.518511
v -1.587016 1.035207 6.518511
v -6.412984 1.035207 1.481489
v -1.587015 1.035207 1.481489
v -6.412984 -1.035207 1.481489
v -1.587015 -1.035207 1.481489
vt 0.375000 0.000000
vt 0.625000 0.000000
vt 0.375000 0.250000
vt 0.625000 0.250000
vt 0.375000 0.500000
vt 0.625000 0.500000
vt 0.375000 0.750000
vt 0.625000 0.750000
vt 0.375000 1.000000
vt 0.625000 1.000000
vt 0.875000 0.000000
vt 0.875000 0.250000
vt 0.125000 0.000000
vt 0.125000 0.250000
vn 0.000000 0.000000 1.000000
vn 0.000000 0.000000 1.000000
vn 0.000000 0.000000 1.000000
vn 0.000000 0.000000 1.000000
vn 0.000000 1.000000 0.000000
vn 0.000000 1.000000 0.000000
vn 0.000000 1.000000 0.000000
vn 0.000000 1.000000 0.000000
vn 0.000000 0.000000 -1.000000
vn 0.000000 0.000000 -1.000000
vn 0.000000 0.000000 -1.000000
vn 0.000000 0.000000 -1.000000
vn 0.000000 -1.000000 0.000000
vn 0.000000 -1.000000 0.000000
vn 0.000000 -1.000000 0.000000
vn 0.000000 -1.000000 0.000000
vn 1.000000 0.000000 0.000000
vn 1.000000 0.000000 0.000000
vn 1.000000 0.000000 0.000000
vn 1.000000 0.000000 0.000000
vn -1.000000 0.000000 -0.000000
vn -1.000000 0.000000 -0.000000
vn -1.000000 0.000000 -0.000000
vn -1.000000 0.000000 -0.000000
s off
g group pasted__pCube3
usemtl blinn12SG
f 35/65/99 36/66/100 38/68/101 37/67/102
f 37/67/103 38/68/104 40/70/105 39/69/106
f 39/69/107 40/70/108 42/72/109 41/71/110
f 41/71/111 42/72/112 36/74/113 35/73/114
f 36/66/115 42/75/116 40/76/117 38/68/118
f 41/77/119 35/65/120 37/67/121 39/78/122
g default
v -6.412984 -1.035207 -1.481489
v -1.587016 -1.035207 -1.481489
v -6.412984 1.035207 -1.481489
v -1.587016 1.035207 -1.481489
v -6.412984 1.035207 -6.518511
v -1.587015 1.035207 -6.518511
v -6.412984 -1.035207 -6.518511
v -1.587015 -1.035207 -6.518511
vt 0.375000 0.000000
vt 0.625000 0.000000
vt 0.375000 0.250000
vt 0.625000 0.250000
vt 0.375000 0.500000
vt 0.625000 0.500000
vt 0.375000 0.750000
vt 0.625000 0.750000
vt 0.375000 1.000000
vt 0.625000 1.000000
vt 0.875000 0.000000
vt 0.875000 0.250000
vt 0.125000 0.000000
vt 0.125000 0.250000
vn 0.000000 0.000000 1.000000
vn 0.000000 0.000000 1.000000
vn 0.000000 0.000000 1.000000
vn 0.000000 0.000000 1.000000
vn 0.000000 1.000000 0.000000
vn 0.000000 1.000000 0.000000
vn 0.000000 1.000000 0.000000
vn 0.000000 1.000000 0.000000
vn 0.000000 0.000000 -1.000000
vn 0.000000 0.000000 -1.000000
vn 0.000000 0.000000 -1.000000
vn 0.000000 0.000000 -1.000000
vn 0.000000 -1.000000 0.000000
vn 0.000000 -1.000000 0.000000
vn 0.000000 -1.000000 0.000000
vn 0.000000 -1.000000 0.000000
vn 1.000000 0.000000 0.000000
vn 1.000000 0.000000 0.000000
vn 1.000000 0.000000 0.000000
vn 1.000000 0.000000 0.000000
vn -1.000000 0.000000 -0.000000
vn -1.000000 0.000000 -0.000000
vn -1.000000 0.000000 -0.000000
vn -1.000000 0.000000 -0.000000
s off
g group pasted__pCube4
usemtl blinn8SG
f 43/79/123 44/80/124 46/82/125 45/81/126
f 45/81/127 46/82/128 48/84/129 47/83/130
f 47/83/131 48/84/132 50/86/133 49/85/134
f 49/85/135 50/86/136 44/88/137 43/87/138
f 44/80/139 50/89/140 48/90/141 46/82/142
f 49/91/143 43/79/144 45/81/145 47/92/146
g default
v -3.965741 -1.055969 3.918443
v 3.965741 -1.055969 3.918443
v -3.965741 1.000500 3.918443
v 3.965741 1.000500 3.918443
v -3.965740 1.000500 -3.918443
v 3.965741 1.000500 -3.918443
v -3.965740 -1.055969 -3.918443
v 3.965741 -1.055969 -3.918443
vt 0.167889 -0.196631
vt 0.167889 -0.196631
vt 0.106706 0.899517
vt 0.106706 0.899517
vt 0.955723 0.591204
vt 0.955723 0.591204
vt 0.955723 -0.196631
vt 0.955723 -0.196631
vn 0.000000 0.000000 1.000000
vn 0.000000 0.000000 1.000000
vn 0.000000 0.000000 1.000000
vn 0.000000 0.000000 1.000000
vn 0.000000 1.000000 0.000000
vn 0.000000 1.000000 0.000000
vn 0.000000 1.000000 0.000000
vn 0.000000 1.000000 0.000000
vn 0.000000 0.000000 -1.000000
vn 0.000000 0.000000 -1.000000
vn 0.000000 0.000000 -1.000000
vn 0.000000 0.000000 -1.000000
vn 0.000000 -1.000000 0.000000
vn 0.000000 -1.000000 0.000000
vn 0.000000 -1.000000 0.000000
vn 0.000000 -1.000000 0.000000
vn 1.000000 0.000000 0.000000
vn 1.000000 0.000000 0.000000
vn 1.000000 0.000000 0.000000
vn 1.000000 0.000000 0.000000
vn -1.000000 0.000000 -0.000000
vn -1.000000 0.000000 -0.000000
vn -1.000000 0.000000 -0.000000
vn -1.000000 0.000000 -0.000000
s off
g group pasted__pCube5
usemtl blinn10SG
f 51/93/147 52/94/148 54/95/149 53/96/150
f 53/96/151 54/95/152 56/97/153 55/98/154
f 55/98/155 56/97/156 58/99/157 57/100/158
f 57/100/159 58/99/160 52/94/161 51/93/162
f 52/94/163 58/99/164 56/97/165 54/95/166
f 57/100/167 51/93/168 53/96/169 55/98/170
g default
v -2.412984 0.928390 2.518511
v 2.412984 0.928390 2.518511
v -2.412984 1.332694 2.518511
v 2.412984 1.332694 2.518511
v -2.412984 1.332694 -2.518511
v 2.412985 1.332694 -2.518511
v -2.412984 0.928390 -2.518511
v 2.412985 0.928390 -2.518511
vt 0.375000 0.000000
vt 0.625000 0.000000
vt 0.375000 0.250000
vt 0.625000 0.250000
vt 0.375000 0.500000
vt 0.625000 0.500000
vt 0.375000 0.750000
vt 0.625000 0.750000
vt 0.375000 1.000000
vt 0.625000 1.000000
vt 0.875000 0.000000
vt 0.875000 0.250000
vt 0.125000 0.000000
vt 0.125000 0.250000
vn 0.000000 0.000000 1.000000
vn 0.000000 0.000000 1.000000
vn 0.000000 0.000000 1.000000
vn 0.000000 0.000000 1.000000
vn 0.000000 1.000000 0.000000
vn 0.000000 1.000000 0.000000
vn 0.000000 1.000000 0.000000
vn 0.000000 1.000000 0.000000
vn 0.000000 0.000000 -1.000000
vn 0.000000 0.000000 -1.000000
vn 0.000000 0.000000 -1.000000
vn 0.000000 0.000000 -1.000000
vn 0.000000 -1.000000 0.000000
vn 0.000000 -1.000000 0.000000
vn 0.000000 -1.000000 0.000000
vn 0.000000 -1.000000 0.000000
vn 1.000000 0.000000 0.000000
vn 1.000000 0.000000 0.000000
vn 1.000000 0.000000 0.000000
vn 1.000000 0.000000 0.000000
vn -1.000000 0.000000 -0.000000
vn -1.000000 0.000000 -0.000000
vn -1.000000 0.000000 -0.000000
vn -1.000000 0.000000 -0.000000
s off
g group pasted__pCube6
usemtl blinn8SG
f 59/101/171 60/102/172 62/104/173 61/103/174
f 61/103/175 62/104/176 64/106/177 63/105/178
f 63/105/179 64/106/180 66/108/181 65/107/182
f 65/107/183 66/108/184 60/110/185 59/109/186
f 60/102/187 66/111/188 64/112/189 62/104/190
f 65/113/191 59/101/192 61/103/193 63/114/194
