# This file uses centimeters as units for non-parametric coordinates.

mtllib Bipod_chassis.mtl
g default
v -3.698891 0.000000 0.690585
v -1.560138 0.000000 0.690585
v -3.698891 1.956687 0.690585
v -1.560138 1.956687 0.690585
v -3.698891 1.956687 -2.265457
v -1.560138 1.956687 -2.265457
v -3.698891 0.000000 -2.265457
v -1.560138 0.000000 -2.265457
v -3.698891 0.000000 3.366259
v -1.560138 0.000000 3.366259
v -1.560138 0.523889 3.366259
v -3.698891 0.523889 3.366259
v -3.379419 1.956687 0.367105
v -1.879609 1.956687 0.367105
v -1.879609 1.956687 -1.941977
v -3.379419 1.956687 -1.941977
v -3.226710 5.480273 1.355422
v -2.032318 5.480273 1.355422
v -2.032318 5.581267 -0.123950
v -3.226710 5.581267 -0.123950
v -3.379419 9.453033 0.367105
v -1.879609 9.453033 0.367105
v -1.879609 9.453033 -2.564337
v -3.379419 9.453033 -2.564337
vt 0.375000 0.000000
vt 0.625000 0.000000
vt 0.375000 0.250000
vt 0.625000 0.250000
vt 0.375000 0.500000
vt 0.625000 0.500000
vt 0.375000 0.750000
vt 0.625000 0.750000
vt 0.375000 1.000000
vt 0.625000 1.000000
vt 0.875000 0.000000
vt 0.875000 0.250000
vt 0.125000 0.000000
vt 0.125000 0.250000
vt 0.375000 0.000000
vt 0.625000 0.000000
vt 0.625000 0.250000
vt 0.375000 0.250000
vt 0.375000 0.250000
vt 0.625000 0.250000
vt 0.625000 0.500000
vt 0.375000 0.500000
vt 0.375000 0.250000
vt 0.625000 0.250000
vt 0.625000 0.500000
vt 0.375000 0.500000
vt 0.375000 0.250000
vt 0.625000 0.250000
vt 0.625000 0.500000
vt 0.375000 0.500000
vn 0.000000 0.000000 1.000000
vn 0.000000 0.000000 1.000000
vn 0.000000 0.000000 1.000000
vn 0.000000 0.000000 1.000000
vn 0.000000 1.000000 0.000000
vn 0.000000 1.000000 0.000000
vn 0.000000 1.000000 0.000000
vn 0.000000 1.000000 0.000000
vn 0.000000 0.000000 -1.000000
vn 0.000000 0.000000 -1.000000
vn 0.000000 0.000000 -1.000000
vn 0.000000 0.000000 -1.000000
vn 0.000000 -1.000000 0.000000
vn 0.000000 -1.000000 0.000000
vn 0.000000 -1.000000 0.000000
vn 0.000000 -1.000000 0.000000
vn 1.000000 0.000000 0.000000
vn 1.000000 0.000000 0.000000
vn 1.000000 0.000000 0.000000
vn 1.000000 0.000000 0.000000
vn -1.000000 0.000000 0.000000
vn -1.000000 0.000000 0.000000
vn -1.000000 0.000000 0.000000
vn -1.000000 0.000000 0.000000
vn 0.000000 -1.000000 0.000000
vn 0.000000 -1.000000 0.000000
vn 1.000000 0.000000 0.000000
vn 1.000000 0.000000 0.000000
vn 0.000000 0.881562 0.472068
vn 0.000000 0.881562 0.472068
vn 0.000000 0.881562 0.472068
vn 0.000000 0.881562 0.472068
vn -1.000000 0.000000 0.000000
vn -1.000000 0.000000 0.000000
vn 0.000000 1.000000 -0.000000
vn 0.000000 1.000000 -0.000000
vn 0.000000 1.000000 -0.000000
vn 0.000000 1.000000 -0.000000
vn 0.000000 1.000000 0.000000
vn 0.000000 1.000000 0.000000
vn 0.000000 1.000000 0.000000
vn 0.000000 1.000000 0.000000
vn 0.000000 1.000000 0.000000
vn 0.000000 1.000000 0.000000
vn 0.000000 1.000000 0.000000
vn 0.000000 1.000000 0.000000
vn 0.000000 1.000000 0.000000
vn 0.000000 1.000000 0.000000
vn 0.000000 1.000000 0.000000
vn 0.000000 1.000000 0.000000
vn 0.000000 -0.270064 0.962842
vn 0.000000 -0.270064 0.962842
vn 0.000000 -0.014817 0.999890
vn 0.000000 -0.014817 0.999890
vn 0.999107 0.042247 0.001126
vn 0.999107 0.042247 0.001126
vn 0.999999 0.001476 0.000113
vn 0.999999 0.001476 0.000113
vn 0.000000 0.448345 -0.893861
vn 0.000000 0.448345 -0.893861
vn 0.000000 -0.048726 -0.998812
vn 0.000000 -0.048726 -0.998812
vn -0.999107 0.042247 0.001126
vn -0.999107 0.042247 0.001126
vn -0.999999 0.001476 0.000113
vn -0.999999 0.001476 0.000113
vn 0.000000 0.241415 0.970422
vn 0.000000 0.241415 0.970422
vn 0.999227 -0.039297 -0.000900
vn 0.999227 -0.039297 -0.000900
vn 0.000000 -0.533221 -0.845976
vn 0.000000 -0.533221 -0.845976
vn -0.999227 -0.039297 -0.000900
vn -0.999227 -0.039297 -0.000900
s off
g pCube1
usemtl blinn1SG
f 9/15/1 10/16/2 11/17/3 12/18/4
usemtl initialShadingGroup
f 21/27/5 22/28/6 23/29/7 24/30/8
usemtl blinn1SG
f 5/5/9 6/6/10 8/8/11 7/7/12
s 1
f 7/7/13 8/8/14 2/10/15 1/9/16
s 2
f 2/2/17 8/11/18 6/12/19 4/4/20
s 3
f 7/13/21 1/1/22 3/3/23 5/14/24
s 1
f 1/1/16 2/2/15 10/16/25 9/15/26
s 2
f 2/2/17 4/4/20 11/17/27 10/16/28
s off
f 4/4/29 3/3/30 12/18/31 11/17/32
s 3
f 3/3/23 1/1/22 9/15/33 12/18/34
s off
f 3/3/35 4/4/36 14/20/37 13/19/38
f 4/4/39 6/6/40 15/21/41 14/20/42
f 6/6/43 5/5/44 16/22/45 15/21/46
f 5/5/47 3/3/48 13/19/49 16/22/50
s 4
usemtl blinn2SG
f 13/19/51 14/20/52 18/24/53 17/23/54
s 5
f 14/20/55 15/21/56 19/25/57 18/24/58
s 6
f 15/21/59 16/22/60 20/26/61 19/25/62
s 7
f 16/22/63 13/19/64 17/23/65 20/26/66
s 4
f 17/23/54 18/24/53 22/28/67 21/27/68
s 5
f 18/24/58 19/25/57 23/29/69 22/28/70
s 6
f 19/25/62 20/26/61 24/30/71 23/29/72
s 7
f 20/26/66 17/23/65 21/27/73 24/30/74
g default
v 2.051066 0.000000 0.690585
v 4.189819 0.000000 0.690585
v 2.051066 1.956687 0.690585
v 4.189819 1.956687 0.690585
v 2.051066 1.956687 -2.265457
v 4.189819 1.956687 -2.265457
v 2.051066 0.000000 -2.265457
v 4.189819 0.000000 -2.265457
v 2.051066 0.000000 3.366259
v 4.189819 0.000000 3.366259
v 4.189819 0.523889 3.366259
v 2.051066 0.523889 3.366259
v 2.370538 1.956687 0.367105
v 3.870348 1.956687 0.367105
v 3.870348 1.956687 -1.941977
v 2.370538 1.956687 -1.941977
v 2.523247 5.480273 1.355422
v 3.717638 5.480273 1.355422
v 3.717638 5.581267 -0.123950
v 2.523247 5.581267 -0.123950
v 2.370538 9.453033 0.367105
v 3.870348 9.453033 0.367105
v 3.870348 9.453033 -2.564337
v 2.370538 9.453033 -2.564337
vt 0.375000 0.000000
vt 0.625000 0.000000
vt 0.375000 0.250000
vt 0.625000 0.250000
vt 0.375000 0.500000
vt 0.625000 0.500000
vt 0.375000 0.750000
vt 0.625000 0.750000
vt 0.375000 1.000000
vt 0.625000 1.000000
vt 0.875000 0.000000
vt 0.875000 0.250000
vt 0.125000 0.000000
vt 0.125000 0.250000
vt 0.375000 0.000000
vt 0.625000 0.000000
vt 0.625000 0.250000
vt 0.375000 0.250000
vt 0.375000 0.250000
vt 0.625000 0.250000
vt 0.625000 0.500000
vt 0.375000 0.500000
vt 0.375000 0.250000
vt 0.625000 0.250000
vt 0.625000 0.500000
vt 0.375000 0.500000
vt 0.375000 0.250000
vt 0.625000 0.250000
vt 0.625000 0.500000
vt 0.375000 0.500000
vn 0.000000 0.000000 1.000000
vn 0.000000 0.000000 1.000000
vn 0.000000 0.000000 1.000000
vn 0.000000 0.000000 1.000000
vn 0.000000 1.000000 0.000000
vn 0.000000 1.000000 0.000000
vn 0.000000 1.000000 0.000000
vn 0.000000 1.000000 0.000000
vn 0.000000 0.000000 -1.000000
vn 0.000000 0.000000 -1.000000
vn 0.000000 0.000000 -1.000000
vn 0.000000 0.000000 -1.000000
vn 0.000000 -1.000000 0.000000
vn 0.000000 -1.000000 0.000000
vn 0.000000 -1.000000 0.000000
vn 0.000000 -1.000000 0.000000
vn 1.000000 0.000000 0.000000
vn 1.000000 0.000000 0.000000
vn 1.000000 0.000000 0.000000
vn 1.000000 0.000000 0.000000
vn -1.000000 0.000000 0.000000
vn -1.000000 0.000000 0.000000
vn -1.000000 0.000000 0.000000
vn -1.000000 0.000000 0.000000
vn 0.000000 -1.000000 0.000000
vn 0.000000 -1.000000 0.000000
vn 1.000000 0.000000 0.000000
vn 1.000000 0.000000 0.000000
vn 0.000000 0.881562 0.472068
vn 0.000000 0.881562 0.472068
vn 0.000000 0.881562 0.472068
vn 0.000000 0.881562 0.472068
vn -1.000000 0.000000 0.000000
vn -1.000000 0.000000 0.000000
vn 0.000000 1.000000 -0.000000
vn 0.000000 1.000000 -0.000000
vn 0.000000 1.000000 -0.000000
vn 0.000000 1.000000 -0.000000
vn 0.000000 1.000000 0.000000
vn 0.000000 1.000000 0.000000
vn 0.000000 1.000000 0.000000
vn 0.000000 1.000000 0.000000
vn 0.000000 1.000000 0.000000
vn 0.000000 1.000000 0.000000
vn 0.000000 1.000000 0.000000
vn 0.000000 1.000000 0.000000
vn 0.000000 1.000000 0.000000
vn 0.000000 1.000000 0.000000
vn 0.000000 1.000000 0.000000
vn 0.000000 1.000000 0.000000
vn 0.000000 -0.270064 0.962842
vn 0.000000 -0.270064 0.962842
vn 0.000000 -0.014817 0.999890
vn 0.000000 -0.014817 0.999890
vn 0.999107 0.042247 0.001126
vn 0.999107 0.042247 0.001126
vn 0.999999 0.001476 0.000113
vn 0.999999 0.001476 0.000113
vn 0.000000 0.448345 -0.893861
vn 0.000000 0.448345 -0.893861
vn 0.000000 -0.048726 -0.998812
vn 0.000000 -0.048726 -0.998812
vn -0.999107 0.042247 0.001126
vn -0.999107 0.042247 0.001126
vn -0.999999 0.001476 0.000113
vn -0.999999 0.001476 0.000113
vn 0.000000 0.241415 0.970422
vn 0.000000 0.241415 0.970422
vn 0.999227 -0.039297 -0.000900
vn 0.999227 -0.039297 -0.000900
vn 0.000000 -0.533221 -0.845976
vn 0.000000 -0.533221 -0.845976
vn -0.999227 -0.039297 -0.000900
vn -0.999227 -0.039297 -0.000900
s off
g pCube2
usemtl blinn1SG
f 33/45/75 34/46/76 35/47/77 36/48/78
usemtl initialShadingGroup
f 45/57/79 46/58/80 47/59/81 48/60/82
usemtl blinn1SG
f 29/35/83 30/36/84 32/38/85 31/37/86
s 1
f 31/37/87 32/38/88 26/40/89 25/39/90
s 2
f 26/32/91 32/41/92 30/42/93 28/34/94
s 3
f 31/43/95 25/31/96 27/33/97 29/44/98
s 1
f 25/31/90 26/32/89 34/46/99 33/45/100
s 2
f 26/32/91 28/34/94 35/47/101 34/46/102
s off
usemtl blinn3SG
f 28/34/103 27/33/104 36/48/105 35/47/106
s 3
usemtl blinn1SG
f 27/33/97 25/31/96 33/45/107 36/48/108
s off
f 27/33/109 28/34/110 38/50/111 37/49/112
f 28/34/113 30/36/114 39/51/115 38/50/116
f 30/36/117 29/35/118 40/52/119 39/51/120
f 29/35/121 27/33/122 37/49/123 40/52/124
s 4
usemtl blinn2SG
f 37/49/125 38/50/126 42/54/127 41/53/128
s 5
f 38/50/129 39/51/130 43/55/131 42/54/132
s 6
f 39/51/133 40/52/134 44/56/135 43/55/136
s 7
f 40/52/137 37/49/138 41/53/139 44/56/140
s 4
f 41/53/128 42/54/127 46/58/141 45/57/142
s 5
f 42/54/132 43/55/131 47/59/143 46/58/144
s 6
f 43/55/136 44/56/135 48/60/145 47/59/146
s 7
f 44/56/140 41/53/139 45/57/147 48/60/148
g default
v -4.229471 8.801953 2.156540
v 4.795199 8.801953 2.156540
v -4.229471 9.814813 2.156540
v 4.795199 9.814813 2.156540
v -4.229471 9.814813 -4.600123
v 4.795199 9.814813 -4.600123
v -4.229471 8.801953 -4.600123
v 4.795199 8.801953 -4.600123
vt 0.375000 0.000000
vt 0.625000 0.000000
vt 0.375000 0.250000
vt 0.625000 0.250000
vt 0.375000 0.500000
vt 0.625000 0.500000
vt 0.375000 0.750000
vt 0.625000 0.750000
vt 0.375000 1.000000
vt 0.625000 1.000000
vt 0.875000 0.000000
vt 0.875000 0.250000
vt 0.125000 0.000000
vt 0.125000 0.250000
vn 0.000000 0.000000 1.000000
vn 0.000000 0.000000 1.000000
vn 0.000000 0.000000 1.000000
vn 0.000000 0.000000 1.000000
vn 0.000000 1.000000 0.000000
vn 0.000000 1.000000 0.000000
vn 0.000000 1.000000 0.000000
vn 0.000000 1.000000 0.000000
vn 0.000000 0.000000 -1.000000
vn 0.000000 0.000000 -1.000000
vn 0.000000 0.000000 -1.000000
vn 0.000000 0.000000 -1.000000
vn 0.000000 -1.000000 0.000000
vn 0.000000 -1.000000 0.000000
vn 0.000000 -1.000000 0.000000
vn 0.000000 -1.000000 0.000000
vn 1.000000 0.000000 0.000000
vn 1.000000 0.000000 0.000000
vn 1.000000 0.000000 0.000000
vn 1.000000 0.000000 0.000000
vn -1.000000 0.000000 0.000000
vn -1.000000 0.000000 0.000000
vn -1.000000 0.000000 0.000000
vn -1.000000 0.000000 0.000000
s off
g pCube3
usemtl blinn1SG
f 49/61/149 50/62/150 52/64/151 51/63/152
f 51/63/153 52/64/154 54/66/155 53/65/156
f 53/65/157 54/66/158 56/68/159 55/67/160
f 55/67/161 56/68/162 50/70/163 49/69/164
f 50/62/165 56/71/166 54/72/167 52/64/168
f 55/73/169 49/61/170 51/63/171 53/74/172
g default
v 3.764795 0.643109 3.207617
v 3.800661 1.864039 0.925660
v 2.380849 0.650678 3.189916
v 2.416715 1.871609 0.907958
v 2.381047 0.506247 3.112643
v 2.416913 1.727178 0.830686
v 3.764993 0.498678 3.130345
v 3.800859 1.719608 0.848387
vt 0.375000 0.000000
vt 0.625000 0.000000
vt 0.375000 0.250000
vt 0.625000 0.250000
vt 0.375000 0.500000
vt 0.625000 0.500000
vt 0.375000 0.750000
vt 0.625000 0.750000
vt 0.375000 1.000000
vt 0.625000 1.000000
vt 0.875000 0.000000
vt 0.875000 0.250000
vt 0.125000 0.000000
vt 0.125000 0.250000
vn -0.001211 0.881736 0.471742
vn -0.001211 0.881736 0.471742
vn -0.001211 0.881736 0.471742
vn -0.001211 0.881736 0.471742
vn -0.999903 0.005469 -0.012790
vn -0.999903 0.005469 -0.012790
vn -0.999903 0.005469 -0.012790
vn -0.999903 0.005469 -0.012790
vn 0.001211 -0.881736 -0.471742
vn 0.001211 -0.881736 -0.471742
vn 0.001211 -0.881736 -0.471742
vn 0.001211 -0.881736 -0.471742
vn 0.999903 -0.005469 0.012790
vn 0.999903 -0.005469 0.012790
vn 0.999903 -0.005469 0.012790
vn 0.999903 -0.005469 0.012790
vn 0.013857 0.471712 -0.881644
vn 0.013857 0.471712 -0.881644
vn 0.013857 0.471712 -0.881644
vn 0.013857 0.471712 -0.881644
vn -0.013857 -0.471712 0.881644
vn -0.013857 -0.471712 0.881644
vn -0.013857 -0.471712 0.881644
vn -0.013857 -0.471712 0.881644
s off
g pCube4
usemtl blinn4SG
f 57/75/173 58/76/174 60/78/175 59/77/176
f 59/77/177 60/78/178 62/80/179 61/79/180
f 61/79/181 62/80/182 64/82/183 63/81/184
f 63/81/185 64/82/186 58/84/187 57/83/188
f 58/76/189 64/85/190 62/86/191 60/78/192
f 63/87/193 57/75/194 59/77/195 61/88/196
