# Exported from Wings 3D 1.4.1
mtllib full_block.mtl
o cube1
#16 vertices, 28 faces
v -0.50000000 0.0000000e+0 0.50000000
v -0.50000000 1.00000000 0.50000000
v 0.50000000 1.00000000 0.50000000
v 0.50000000 0.0000000e+0 0.50000000
v -0.50000000 0.0000000e+0 -0.50000000
v -0.50000000 1.00000000 -0.50000000
v 0.50000000 1.00000000 -0.50000000
v 0.50000000 0.0000000e+0 -0.50000000
v -0.36600000 1.00000000 0.36600000
v 0.36600000 1.00000000 0.36600000
v 0.36600000 1.00000000 -0.36600000
v -0.36600000 1.00000000 -0.36600000
v -0.36600000 0.38920448 0.36600000
v 0.36600000 0.38920448 0.36600000
v 0.36600000 0.38920448 -0.36600000
v -0.36600000 0.38920448 -0.36600000
vt -1.7777778e-4 0.99974444
vt -1.7777778e-4 0.49974444
vt -8.3266727e-17 0.0000000e+0
vt 0.0000000e+0 0.50000000
vt 0.0000000e+0 0.50152222
vt 0.0000000e+0 1.00000000
vt 1.1102230e-16 0.0000000e+0
vt 2.4980018e-16 0.49747778
vt 4.0346667e-3 1.9280000e-3
vt 4.8666667e-3 0.50272222
vt 5.1555556e-3 0.49642213
vt 5.1555556e-3 2.9989196e-3
vt 2.5822222e-2 3.6077778e-2
vt 2.5822222e-2 0.48407778
vt 3.3568629e-2 0.41628406
vt 3.3568629e-2 0.26008062
vt 0.11255639 0.36473725
vt 0.11255639 0.28171496
vt 0.12468563 0.15093048
vt 0.15862626 0.48475848
vt 0.21576270 0.22696034
vt 0.21576270 0.38040788
vt 0.25810400 5.3603644e-2
vt 0.25810400 0.21303167
vt 0.44916845 5.3603644e-2
vt 0.44916845 0.21303167
vt 0.47382222 3.6077778e-2
vt 0.47382222 0.48407778
vt 0.49410000 0.49665556
vt 0.49645867 3.1758756e-3
vt 0.49645867 0.49620773
vt 0.49670000 1.2555556e-3
vt 0.49902859 0.50203775
vt 0.49918021 1.5171819e-3
vt 0.49982222 0.99974444
vt 0.49982222 0.49974444
vt 0.50000000 0.50000000
vt 0.50000000 1.00000000
vt 0.50000000 1.00000000
vt 0.50117778 0.50142222
vt 0.50204444 8.2222222e-4
vt 1.00000000 0.50000000
vt 1.00000000 1.00000000
vn -0.57735027 -0.57735027 0.57735027
vn -0.40824829 0.81649658 0.40824829
vn 0.40824829 0.81649658 0.40824829
vn 0.57735027 -0.57735027 0.57735027
vn -0.57735027 -0.57735027 -0.57735027
vn -0.40824829 0.81649658 -0.40824829
vn 0.40824829 0.81649658 -0.40824829
vn 0.57735027 -0.57735027 -0.57735027
vn 0.40824829 0.81649658 -0.40824829
vn -0.40824829 0.81649658 -0.40824829
vn -0.40824829 0.81649658 0.40824829
vn 0.40824829 0.81649658 0.40824829
vn 0.57735027 0.57735027 -0.57735027
vn -0.57735027 0.57735027 -0.57735027
vn -0.57735027 0.57735027 0.57735027
vn 0.57735027 0.57735027 0.57735027
g cube1_cube1_auv
usemtl cube1_auv
s 1
f 1/37/1 4/42/4 2/39/2
f 1/27/1 5/28/5 4/13/4
f 2/39/2 4/42/4 3/43/3
f 2/38/2 5/4/5 1/37/1
f 2/7/2 12/40/12 6/5/6
f 3/9/3 10/34/10 2/10/2
f 4/13/4 5/28/5 8/14/8
f 4/2/4 7/35/7 3/1/3
f 5/37/5 7/6/7 8/4/8
f 6/6/6 5/4/5 2/38/2
f 6/38/6 7/6/7 5/37/5
f 6/12/6 12/30/12 7/11/7
f 7/3/7 10/29/10 3/8/3
f 8/36/8 7/35/7 4/2/4
f 9/33/9 2/10/2 10/34/10
f 9/41/9 12/40/12 2/7/2
f 9/16/9 13/18/13 12/15/12
f 10/29/10 7/3/7 11/32/11
f 10/19/10 13/18/13 9/16/9
f 11/31/11 7/11/7 12/30/12
f 11/24/11 15/23/15 10/26/10
f 12/15/12 15/22/15 11/20/11
f 13/18/13 10/19/10 14/21/14
f 14/25/14 10/26/10 15/23/15
f 14/21/14 15/22/15 13/18/13
f 15/22/15 12/15/12 16/17/16
f 16/17/16 12/15/12 13/18/13
f 16/17/16 13/18/13 15/22/15
