# Exported from Wings 3D 1.4.1
mtllib stripped_half.mtl
o cube1
#8 vertices, 12 faces
v -0.50000000 0.0000000e+0 0.50000000
v -0.50000000 0.50000000 0.50000000
v 0.50000000 0.50000000 0.50000000
v 0.50000000 0.0000000e+0 0.50000000
v -0.50000000 0.0000000e+0 -0.50000000
v -0.50000000 0.50000000 -0.50000000
v 0.50000000 0.50000000 -0.50000000
v 0.50000000 0.0000000e+0 -0.50000000
vt 6.0101101e-4 0.32986914
vt 6.0101101e-4 0.66381022
vt 0.33454209 0.32986914
vt 0.33454209 0.66381022
vt 0.50151263 0.32986914
vt 0.50151263 0.16289861
vt 0.50151263 0.66381022
vt 0.50151263 0.83078076
vt 0.83545370 0.16289861
vt 0.83545370 0.32986914
vt 0.83545370 0.66381022
vt 0.83545370 0.83078076
vt 1.00242424 0.32986914
vt 1.00242424 0.66381022
vn -0.57735027 -0.57735027 0.57735027
vn -0.57735027 0.57735027 0.57735027
vn 0.57735027 0.57735027 0.57735027
vn 0.57735027 -0.57735027 0.57735027
vn -0.57735027 -0.57735027 -0.57735027
vn -0.57735027 0.57735027 -0.57735027
vn 0.57735027 0.57735027 -0.57735027
vn 0.57735027 -0.57735027 -0.57735027
g cube1_cube1_auv
usemtl cube1_auv
s 1
f 1/5/1 4/7/4 2/3/2
f 1/5/1 5/10/5 4/7/4
f 2/3/2 4/7/4 3/4/3
f 2/6/2 5/10/5 1/5/1
f 2/3/2 7/2/7 6/1/6
f 3/4/3 7/2/7 2/3/2
f 4/7/4 5/10/5 8/11/8
f 4/7/4 7/12/7 3/8/3
f 5/10/5 7/14/7 8/11/8
f 6/9/6 5/10/5 2/6/2
f 6/13/6 7/14/7 5/10/5
f 8/11/8 7/12/7 4/7/4
