# This file uses centimeters as units for non-parametric coordinates.

mtllib skybox.mtl
g default
v -7.106437 7.106437 -7.106437
v -7.106437 -7.106437 -7.106437
v -7.106437 7.106437 7.106437
v -7.106437 -7.106437 7.106437
v 7.106437 7.106437 7.106437
v 7.106437 -7.106437 7.106437
v 7.106437 7.106437 -7.106437
v 7.106437 -7.106437 -7.106437
vt 0.347900 0.002710
vt 0.700881 0.005420
vt 0.337060 0.239160
vt 0.679201 0.236450
vt 0.347900 0.502710
vt 0.671070 0.494580
vt 0.345190 0.750000
vt 0.673780 0.747290
vt 0.342480 1.000000
vt 0.676491 1.000000
vt 0.994241 0.000000
vt 0.996951 0.239160
vt 0.011179 0.008130
vt 0.008469 0.239160
vn -1.000000 0.000000 -0.000000
vn -1.000000 0.000000 -0.000000
vn -1.000000 0.000000 -0.000000
vn -1.000000 0.000000 -0.000000
vn -0.000000 -0.000000 1.000000
vn -0.000000 -0.000000 1.000000
vn -0.000000 -0.000000 1.000000
vn -0.000000 -0.000000 1.000000
vn 1.000000 -0.000000 0.000000
vn 1.000000 -0.000000 0.000000
vn 1.000000 -0.000000 0.000000
vn 1.000000 -0.000000 0.000000
vn 0.000000 0.000000 -1.000000
vn 0.000000 0.000000 -1.000000
vn 0.000000 0.000000 -1.000000
vn 0.000000 0.000000 -1.000000
vn -0.000000 -1.000000 -0.000000
vn -0.000000 -1.000000 -0.000000
vn -0.000000 -1.000000 -0.000000
vn -0.000000 -1.000000 -0.000000
vn 0.000000 1.000000 0.000000
vn 0.000000 1.000000 0.000000
vn 0.000000 1.000000 0.000000
vn 0.000000 1.000000 0.000000
s off
g pCube1
usemtl lambert2SG
f 1/1/1 2/2/2 4/4/3 3/3/4
f 3/3/5 4/4/6 6/6/7 5/5/8
f 5/5/9 6/6/10 8/8/11 7/7/12
f 7/7/13 8/8/14 2/10/15 1/9/16
f 2/2/17 8/11/18 6/12/19 4/4/20
f 7/13/21 1/1/22 3/3/23 5/14/24
