# Exported from Wings 3D 1.4.1
mtllib Skybox.mtl
o cube1
#8 vertices, 6 faces
v -68.56715628 -68.56715628 68.56715628
v -68.56715628 68.56715628 68.56715628
v 68.56715628 68.56715628 68.56715628
v 68.56715628 -68.56715628 68.56715628
v -68.56715628 -68.56715628 -68.56715628
v -68.56715628 68.56715628 -68.56715628
v 68.56715628 68.56715628 -68.56715628
v 68.56715628 -68.56715628 -68.56715628
vt 0.12575589 0.75094559
vt 0.12585830 0.49995723
vt 0.37568912 0.75053465
vt 0.37613080 0.49972012
vt 0.37627064 0.99875598
vt 0.37662765 0.25038861
vt 0.37759924 1.5986097e-3
vt 0.62668485 0.25166204
vt 0.62693040 0.75023554
vt 0.62701373 8.7381730e-4
vt 0.62709512 0.99852866
vt 0.62724645 0.50020523
vt 0.87761351 0.75075701
vt 0.87774408 0.50022140
vn 0.57735027 0.57735027 -0.57735027
vn 0.57735027 -0.57735027 -0.57735027
vn -0.57735027 -0.57735027 -0.57735027
vn -0.57735027 0.57735027 -0.57735027
vn 0.57735027 0.57735027 0.57735027
vn 0.57735027 -0.57735027 0.57735027
vn -0.57735027 -0.57735027 0.57735027
vn -0.57735027 0.57735027 0.57735027
g cube1_cube1_auv
usemtl cube1_auv
s 1
f 1/4/1 5/12/5 6/8/6 2/6/2
f 2/2/2 3/1/3 4/3/4 1/4/1
f 2/6/2 6/8/6 7/10/7 3/7/3
f 3/5/3 7/11/7 8/9/8 4/3/4
f 4/3/4 8/9/8 5/12/5 1/4/1
f 5/12/5 8/9/8 7/13/7 6/14/6
