# Exported from Wings 3D 1.4.1
mtllib sphere-colored_2.mtl
o sphere1
#114 vertices, 224 faces
v 9.56708581 23.09698831 4.0172544e-17
v 8.83883476 23.09698831 3.66116524
v 6.76495125 23.09698831 6.76495125
v 3.66116524 23.09698831 8.83883476
v 1.2431839e-15 23.09698831 9.56708581
v -3.66116524 23.09698831 8.83883476
v -6.76495125 23.09698831 6.76495125
v -8.83883476 23.09698831 3.66116524
v -9.56708581 23.09698831 1.2118026e-15
v -8.83883476 23.09698831 -3.66116524
v -6.76495125 23.09698831 -6.76495125
v -3.66116524 23.09698831 -8.83883476
v -1.1000763e-15 23.09698831 -9.56708581
v 3.66116524 23.09698831 -8.83883476
v 6.76495125 23.09698831 -6.76495125
v 8.83883476 23.09698831 -3.66116524
v 17.67766953 17.67766953 4.0172544e-17
v 16.33203706 17.67766953 6.76495125
v 12.50000000 17.67766953 12.50000000
v 6.76495125 17.67766953 16.33203706
v 1.7398140e-15 17.67766953 17.67766953
v -6.76495125 17.67766953 16.33203706
v -12.50000000 17.67766953 12.50000000
v -16.33203706 17.67766953 6.76495125
v -17.67766953 17.67766953 2.2050627e-15
v -16.33203706 17.67766953 -6.76495125
v -12.50000000 17.67766953 -12.50000000
v -6.76495125 17.67766953 -16.33203706
v -2.5899663e-15 17.67766953 -17.67766953
v 6.76495125 17.67766953 -16.33203706
v 12.50000000 17.67766953 -12.50000000
v 16.33203706 17.67766953 -6.76495125
v 23.09698831 9.56708581 4.0172544e-17
v 21.33883476 9.56708581 8.83883476
v 16.33203706 9.56708581 16.33203706
v 8.83883476 9.56708581 21.33883476
v 2.0716515e-15 9.56708581 23.09698831
v -8.83883476 9.56708581 21.33883476
v -16.33203706 9.56708581 16.33203706
v -21.33883476 9.56708581 8.83883476
v -23.09698831 9.56708581 2.8687378e-15
v -21.33883476 9.56708581 -8.83883476
v -16.33203706 9.56708581 -16.33203706
v -8.83883476 9.56708581 -21.33883476
v -3.5854790e-15 9.56708581 -23.09698831
v 8.83883476 9.56708581 -21.33883476
v 16.33203706 9.56708581 -16.33203706
v 21.33883476 9.56708581 -8.83883476
v 25.00000000 2.0274872e-15 4.0172544e-17
v 23.09698831 2.0274872e-15 9.56708581
v 17.67766953 2.0274872e-15 17.67766953
v 9.56708581 2.0274872e-15 23.09698831
v 2.1881774e-15 2.0274872e-15 25.00000000
v -9.56708581 2.0274872e-15 23.09698831
v -17.67766953 2.0274872e-15 17.67766953
v -23.09698831 2.0274872e-15 9.56708581
v -25.00000000 2.0274872e-15 3.1017895e-15
v -23.09698831 2.0274872e-15 -9.56708581
v -17.67766953 2.0274872e-15 -17.67766953
v -9.56708581 2.0274872e-15 -23.09698831
v -3.9350566e-15 2.0274872e-15 -25.00000000
v 9.56708581 2.0274872e-15 -23.09698831
v 17.67766953 2.0274872e-15 -17.67766953
v 23.09698831 2.0274872e-15 -9.56708581
v 23.09698831 -9.56708581 4.0172544e-17
v 21.33883476 -9.56708581 8.83883476
v 16.33203706 -9.56708581 16.33203706
v 8.83883476 -9.56708581 21.33883476
v 2.0716515e-15 -9.56708581 23.09698831
v -8.83883476 -9.56708581 21.33883476
v -16.33203706 -9.56708581 16.33203706
v -21.33883476 -9.56708581 8.83883476
v -23.09698831 -9.56708581 2.8687378e-15
v -21.33883476 -9.56708581 -8.83883476
v -16.33203706 -9.56708581 -16.33203706
v -8.83883476 -9.56708581 -21.33883476
v -3.5854790e-15 -9.56708581 -23.09698831
v 8.83883476 -9.56708581 -21.33883476
v 16.33203706 -9.56708581 -16.33203706
v 21.33883476 -9.56708581 -8.83883476
v 17.67766953 -17.67766953 4.0172544e-17
v 16.33203706 -17.67766953 6.76495125
v 12.50000000 -17.67766953 12.50000000
v 6.76495125 -17.67766953 16.33203706
v 1.7398140e-15 -17.67766953 17.67766953
v -6.76495125 -17.67766953 16.33203706
v -12.50000000 -17.67766953 12.50000000
v -16.33203706 -17.67766953 6.76495125
v -17.67766953 -17.67766953 2.2050627e-15
v -16.33203706 -17.67766953 -6.76495125
v -12.50000000 -17.67766953 -12.50000000
v -6.76495125 -17.67766953 -16.33203706
v -2.5899663e-15 -17.67766953 -17.67766953
v 6.76495125 -17.67766953 -16.33203706
v 12.50000000 -17.67766953 -12.50000000
v 16.33203706 -17.67766953 -6.76495125
v 9.56708581 -23.09698831 4.0172544e-17
v 8.83883476 -23.09698831 3.66116524
v 6.76495125 -23.09698831 6.76495125
v 3.66116524 -23.09698831 8.83883476
v 1.2431839e-15 -23.09698831 9.56708581
v -3.66116524 -23.09698831 8.83883476
v -6.76495125 -23.09698831 6.76495125
v -8.83883476 -23.09698831 3.66116524
v -9.56708581 -23.09698831 1.2118026e-15
v -8.83883476 -23.09698831 -3.66116524
v -6.76495125 -23.09698831 -6.76495125
v -3.66116524 -23.09698831 -8.83883476
v -1.1000763e-15 -23.09698831 -9.56708581
v 3.66116524 -23.09698831 -8.83883476
v 6.76495125 -23.09698831 -6.76495125
v 8.83883476 -23.09698831 -3.66116524
v 6.5736890e-16 25.00000000 4.0172544e-17
v 6.5736890e-16 -25.00000000 4.0172544e-17
vt 0.0000000e+0 0.17145221
vt 0.0000000e+0 0.58319848
vt 2.9157597e-3 8.6041253e-2
vt 1.4974229e-2 0.25425065
vt 1.8585391e-2 0.64223535
vt 2.2414774e-2 5.8286709e-16
vt 4.5437337e-2 0.33289668
vt 7.8213330e-2 9.1099943e-2
vt 7.8423697e-2 0.16645256
vt 8.0138835e-2 0.54802252
vt 8.4439734e-2 7.1047612e-3
vt 8.6795141e-2 0.23997009
vt 0.10302635 0.31750150
vt 0.10458852 0.62458451
vt 0.14843265 9.2757023e-2
vt 0.14898869 0.16342517
vt 0.15160062 1.0662013e-2
vt 0.15361317 0.23259041
vt 0.16176785 0.51898945
vt 0.16222327 0.30901215
vt 0.18802486 0.60063689
vt 0.21555778 0.16196794
vt 0.21557339 9.3696144e-2
vt 0.21784454 0.22886518
vt 0.21797945 1.3394183e-2
vt 0.22217195 0.30453858
vt 0.24400824 0.49689668
vt 0.26776532 0.57047482
vt 0.28019304 0.16161126
vt 0.28076458 0.22738673
vt 0.28087248 9.4825359e-2
vt 0.28232778 0.30263965
vt 0.28326654 1.6014043e-2
vt 0.32514634 0.48168321
vt 0.33098338 0.42839233
vt 0.34246374 0.53525169
vt 0.34275053 0.30255834
vt 0.34305414 0.22742108
vt 0.34361416 0.16227473
vt 0.34493324 9.6471686e-2
vt 0.34764666 1.8789884e-2
vt 0.35630597 0.38174238
vt 0.37832287 0.57500548
vt 0.39683284 0.47453612
vt 0.39711393 0.34833035
vt 0.39909033 0.44897688
vt 0.40359478 0.30377198
vt 0.40476349 0.49914471
vt 0.40510056 0.22851620
vt 0.40639584 0.16365747
vt 0.40812145 9.8421755e-2
vt 0.41095840 2.1748357e-2
vt 0.41097387 0.42637460
vt 0.42151909 0.51856233
vt 0.42604756 0.59803207
vt 0.43053073 0.41009460
vt 0.44432773 0.52997103
vt 0.44732907 0.33289668
vt 0.45471292 0.40252501
vt 0.46191190 0.46715357
vt 0.46487338 0.30578072
vt 0.46712067 0.23024232
vt 0.46885202 0.16550223
vt 0.46966896 0.53179394
vt 0.47068395 0.10055681
vt 0.47331655 2.4533531e-2
vt 0.47857480 0.60128849
vt 0.47990877 0.40474900
vt 0.49371855 0.52385359
vt 0.49952238 0.33766602
vt 0.50237547 0.41637571
vt 0.51286951 0.50736742
vt 0.51870278 0.43566582
vt 0.52431280 0.48484795
vt 0.52637712 0.45970227
vt 0.52668345 0.30836315
vt 0.52819351 0.58455417
vt 0.52931605 0.23233987
vt 0.53114798 0.16739445
vt 0.53287933 0.10265436
vt 0.53512662 2.7115956e-2
vt 0.54600205 0.36181026
vt 0.56771228 0.55040159
vt 0.57992545 0.40182545
vt 0.58904160 0.31114832
vt 0.59137963 0.50384370
vt 0.59187855 0.23447492
vt 0.59360416 0.16923920
vt 0.59489944 0.10438048
vt 0.59568979 0.47690723
vt 0.59568979 0.45176976
vt 0.59640522 2.9124694e-2
vt 0.60652555 0.42203097
vt 0.60666309 0.53207371
vt 0.63731652 0.37556110
vt 0.63868454 0.57831634
vt 0.65235334 0.31410679
vt 0.65506676 0.23642499
vt 0.65638584 0.17062195
vt 0.65694586 0.10547560
vt 0.65724947 3.0338342e-2
vt 0.67027699 0.47645934
vt 0.67536445 0.45006443
vt 0.67570102 0.50280348
vt 0.68342124 0.34429840
vt 0.68566058 0.60868194
vt 0.69015605 0.42766198
vt 0.69086468 0.52501826
vt 0.71237807 0.41259711
vt 0.71337315 0.53971324
vt 0.71673346 0.31688264
vt 0.71767222 3.0257031e-2
vt 0.71912752 0.23807132
vt 0.71923542 0.10550994
vt 0.71980696 0.17128542
vt 0.73794649 0.33289668
vt 0.73865622 0.40709920
vt 0.73920763 0.47587837
vt 0.73975904 0.54465753
vt 0.74046877 0.61886006
vt 0.76504211 0.41204350
vt 0.76603720 0.53915963
vt 0.77782805 2.8358095e-2
vt 0.78202055 0.31950250
vt 0.78215546 0.10403150
vt 0.78442661 0.23920053
vt 0.78444222 0.17092874
vt 0.78755059 0.42673847
vt 0.78825921 0.52409476
vt 0.79275468 0.34307479
vt 0.79499402 0.60745833
vt 0.80271425 0.44895326
vt 0.80305081 0.50169230
vt 0.80813827 0.47529739
vt 0.83777673 2.3884525e-2
vt 0.83973072 0.37344039
vt 0.84109875 0.57619563
vt 0.84638683 0.10030626
vt 0.84839938 0.32223466
vt 0.85101131 0.16947150
vt 0.85156735 0.24013965
vt 0.87175218 0.41968302
vt 0.87188971 0.52972577
vt 0.88272547 0.47484950
vt 0.89697365 1.5395177e-2
vt 0.91320486 9.2926584e-2
vt 0.91556027 0.32579192
vt 0.92157630 0.16644411
vt 0.92178667 0.24179673
vt 0.95456266 0.0000000e+0
vt 0.97758523 0.33289668
vt 0.98502577 7.8646028e-2
vt 0.99708424 0.24685542
vt 1.00000000 0.16144446
vn -0.38219484 -0.92408176 3.3720159e-16
vn -0.40886088 -0.89674490 -0.16935572
vn -0.27025256 -0.92408176 -0.27025256
vn -0.16935572 -0.89674490 -0.40886088
vn -2.8395923e-17 -0.92408176 -0.38219484
vn 0.16935572 -0.89674490 -0.40886088
vn 0.27025256 -0.92408176 -0.27025256
vn 0.40886088 -0.89674490 -0.16935572
vn 0.38219484 -0.92408176 3.5494904e-18
vn 0.40886088 -0.89674490 0.16935572
vn 0.27025256 -0.92408176 0.27025256
vn 0.16935572 -0.89674490 0.40886088
vn -1.4197962e-17 -0.92408176 0.38219484
vn -0.16935572 -0.89674490 0.40886088
vn -0.27025256 -0.92408176 0.27025256
vn -0.40886088 -0.89674490 0.16935572
vn -0.70658450 -0.70762868 2.3040443e-16
vn -0.65279895 -0.70762868 -0.27039818
vn -0.49963069 -0.70762868 -0.49963069
vn -0.27039818 -0.70762868 -0.65279895
vn -3.5721617e-18 -0.70762868 -0.70658450
vn 0.27039818 -0.70762868 -0.65279895
vn 0.49963069 -0.70762868 -0.49963069
vn 0.65279895 -0.70762868 -0.27039818
vn 0.70658450 -0.70762868 -2.8577294e-17
vn 0.65279895 -0.70762868 0.27039818
vn 0.49963069 -0.70762868 0.49963069
vn 0.27039818 -0.70762868 0.65279895
vn -3.5721617e-18 -0.70762868 0.70658450
vn -0.27039818 -0.70762868 0.65279895
vn -0.49963069 -0.70762868 0.49963069
vn -0.65279895 -0.70762868 0.27039818
vn -0.92368212 -0.38315969 1.0065340e-16
vn -0.85337100 -0.38315969 -0.35347784
vn -0.65314189 -0.38315969 -0.65314189
vn -0.35347784 -0.38315969 -0.85337100
vn 0.0000000e+0 -0.38315969 -0.92368212
vn 0.35347784 -0.38315969 -0.85337100
vn 0.65314189 -0.38315969 -0.65314189
vn 0.85337100 -0.38315969 -0.35347784
vn 0.92368212 -0.38315969 -3.5947644e-17
vn 0.85337100 -0.38315969 0.35347784
vn 0.65314189 -0.38315969 0.65314189
vn 0.35347784 -0.38315969 0.85337100
vn -1.4379058e-17 -0.38315969 0.92368212
vn -0.35347784 -0.38315969 0.85337100
vn -0.65314189 -0.38315969 0.65314189
vn -0.85337100 -0.38315969 0.35347784
vn -1.00000000 -4.3249275e-17 3.9645169e-17
vn -0.92387953 -1.4416425e-17 -0.38268343
vn -0.70710678 -1.4416425e-17 -0.70710678
vn -0.38268343 -2.8832850e-17 -0.92387953
vn 1.0812319e-17 -1.4416425e-17 -1.00000000
vn 0.38268343 0.0000000e+0 -0.92387953
vn 0.70710678 1.8020531e-17 -0.70710678
vn 0.92387953 0.0000000e+0 -0.38268343
vn 1.00000000 7.2082126e-18 -1.0451908e-16
vn 0.92387953 0.0000000e+0 0.38268343
vn 0.70710678 3.9645169e-17 0.70710678
vn 0.38268343 -1.4416425e-17 0.92387953
vn 1.6939300e-16 -1.0812319e-17 1.00000000
vn -0.38268343 7.2082126e-18 0.92387953
vn -0.70710678 8.6498551e-17 0.70710678
vn -0.92387953 7.2082126e-18 0.38268343
vn -0.92368212 0.38315969 4.3137173e-17
vn -0.85337100 0.38315969 -0.35347784
vn -0.65314189 0.38315969 -0.65314189
vn -0.35347784 0.38315969 -0.85337100
vn 1.4379058e-17 0.38315969 -0.92368212
vn 0.35347784 0.38315969 -0.85337100
vn 0.65314189 0.38315969 -0.65314189
vn 0.85337100 0.38315969 -0.35347784
vn 0.92368212 0.38315969 -5.0326702e-17
vn 0.85337100 0.38315969 0.35347784
vn 0.65314189 0.38315969 0.65314189
vn 0.35347784 0.38315969 0.85337100
vn -7.1895288e-18 0.38315969 0.92368212
vn -0.35347784 0.38315969 0.85337100
vn -0.65314189 0.38315969 0.65314189
vn -0.85337100 0.38315969 0.35347784
vn -0.70658450 0.70762868 2.1075754e-16
vn -0.65279895 0.70762868 -0.27039818
vn -0.49963069 0.70762868 -0.49963069
vn -0.27039818 0.70762868 -0.65279895
vn -3.5721617e-18 0.70762868 -0.70658450
vn 0.27039818 0.70762868 -0.65279895
vn 0.49963069 0.70762868 -0.49963069
vn 0.65279895 0.70762868 -0.27039818
vn 0.70658450 0.70762868 -1.0716485e-17
vn 0.65279895 0.70762868 0.27039818
vn 0.49963069 0.70762868 0.49963069
vn 0.27039818 0.70762868 0.65279895
vn 1.0716485e-17 0.70762868 0.70658450
vn -0.27039818 0.70762868 0.65279895
vn -0.49963069 0.70762868 0.49963069
vn -0.65279895 0.70762868 0.27039818
vn -0.38219484 0.92408176 -2.5911280e-16
vn -0.40886088 0.89674490 -0.16935572
vn -0.27025256 0.92408176 -0.27025256
vn -0.16935572 0.89674490 -0.40886088
vn -7.0989809e-18 0.92408176 -0.38219484
vn 0.16935572 0.89674490 -0.40886088
vn 0.27025256 0.92408176 -0.27025256
vn 0.40886088 0.89674490 -0.16935572
vn 0.38219484 0.92408176 7.0989809e-18
vn 0.40886088 0.89674490 0.16935572
vn 0.27025256 0.92408176 0.27025256
vn 0.16935572 0.89674490 0.40886088
vn -3.5494904e-18 0.92408176 0.38219484
vn -0.16935572 0.89674490 0.40886088
vn -0.27025256 0.92408176 0.27025256
vn -0.40886088 0.89674490 0.16935572
vn 1.4160320e-17 -1.00000000 1.9912950e-17
vn 3.0090679e-17 1.00000000 7.0801599e-18
g sphere1_sphere1_auv
usemtl sphere1_auv
s 1
f 1/74/1 17/86/17 2/75/2
f 1/74/1 113/60/113 16/72/16
f 2/75/2 17/86/17 18/91/18
f 2/75/2 19/84/19 3/73/3
f 2/75/2 113/60/113 1/74/1
f 3/73/3 19/84/19 4/71/4
f 3/73/3 113/60/113 2/75/2
f 4/71/4 19/84/19 20/82/20
f 4/71/4 21/70/21 5/68/5
f 4/71/4 113/60/113 3/73/3
f 5/68/5 21/70/21 6/59/6
f 5/68/5 113/60/113 4/71/4
f 6/59/6 21/70/21 22/58/22
f 6/59/6 23/45/23 7/56/7
f 6/59/6 113/60/113 5/68/5
f 7/56/7 23/45/23 8/53/8
f 7/56/7 113/60/113 6/59/6
f 8/53/8 23/45/23 24/42/24
f 8/53/8 25/35/25 9/46/9
f 8/53/8 113/60/113 7/56/7
f 9/46/9 25/35/25 10/44/10
f 9/46/9 113/60/113 8/53/8
f 10/44/10 25/35/25 26/34/26
f 10/44/10 27/36/27 11/48/11
f 10/44/10 113/60/113 9/46/9
f 11/48/11 27/36/27 12/54/12
f 11/48/11 113/60/113 10/44/10
f 12/54/12 27/36/27 28/43/28
f 12/54/12 29/55/29 13/57/13
f 12/54/12 113/60/113 11/48/11
f 13/57/13 29/55/29 14/64/14
f 13/57/13 113/60/113 12/54/12
f 14/64/14 29/55/29 30/67/30
f 14/64/14 31/77/31 15/69/15
f 14/64/14 113/60/113 13/57/13
f 15/69/15 31/77/31 16/72/16
f 15/69/15 113/60/113 14/64/14
f 16/72/16 17/86/17 1/74/1
f 16/72/16 31/77/31 32/83/32
f 16/72/16 113/60/113 15/69/15
f 17/85/17 34/78/34 18/76/18
f 17/85/17 48/98/48 33/87/33
f 18/91/18 19/84/19 2/75/2
f 18/76/18 34/78/34 19/61/19
f 19/61/19 34/78/34 35/62/35
f 19/61/19 36/49/36 20/47/20
f 20/82/20 21/70/21 4/71/4
f 20/47/20 36/49/36 21/37/21
f 21/37/21 36/49/36 37/38/37
f 21/37/21 38/30/38 22/32/22
f 22/58/22 23/45/23 6/59/6
f 22/32/22 38/30/38 23/26/23
f 23/26/23 38/30/38 39/24/39
f 23/26/23 40/18/40 24/20/24
f 24/42/24 25/35/25 8/53/8
f 24/20/24 40/18/40 25/13/25
f 25/13/25 40/18/40 41/12/41
f 25/13/25 42/4/42 26/7/26
f 26/34/26 27/36/27 10/44/10
f 26/34/26 42/27/42 27/36/27
f 27/36/27 42/27/42 43/28/43
f 27/151/27 44/149/44 28/147/28
f 28/43/28 29/55/29 12/54/12
f 28/147/28 44/149/44 29/139/29
f 29/139/29 44/149/44 45/141/45
f 29/139/29 46/126/46 30/124/30
f 30/67/30 31/77/31 14/64/14
f 30/124/30 46/126/46 31/111/31
f 31/111/31 46/126/46 47/113/47
f 31/111/31 48/98/48 32/97/32
f 32/83/32 17/86/17 16/72/16
f 32/97/32 48/98/48 17/85/17
f 33/87/33 34/78/34 17/85/17
f 33/87/33 49/88/49 34/78/34
f 34/78/34 49/88/49 50/79/50
f 34/78/34 51/63/51 35/62/35
f 35/62/35 36/49/36 19/61/19
f 35/62/35 51/63/51 36/49/36
f 36/49/36 51/63/51 52/50/52
f 36/49/36 53/39/53 37/38/37
f 37/38/37 38/30/38 21/37/21
f 37/38/37 53/39/53 38/30/38
f 38/30/38 53/39/53 54/29/54
f 38/30/38 55/22/55 39/24/39
f 39/24/39 40/18/40 23/26/23
f 39/24/39 55/22/55 40/18/40
f 40/18/40 55/22/55 56/16/56
f 40/18/40 57/9/57 41/12/41
f 41/12/41 42/4/42 25/13/25
f 41/12/41 57/9/57 42/4/42
f 42/4/42 57/9/57 58/1/58
f 42/27/42 59/21/59 43/28/43
f 43/153/43 44/149/44 27/151/27
f 43/153/43 59/154/59 44/149/44
f 44/149/44 59/154/59 60/148/60
f 44/149/44 61/140/61 45/141/45
f 45/141/45 46/126/46 29/139/29
f 45/141/45 61/140/61 46/126/46
f 46/126/46 61/140/61 62/127/62
f 46/126/46 63/115/63 47/113/47
f 47/113/47 48/98/48 31/111/31
f 47/113/47 63/115/63 48/98/48
f 48/98/48 49/88/49 33/87/33
f 48/98/48 63/115/63 64/99/64
f 49/88/49 66/80/66 50/79/50
f 49/88/49 80/100/80 65/89/65
f 50/79/50 51/63/51 34/78/34
f 50/79/50 66/80/66 51/63/51
f 51/63/51 66/80/66 67/65/67
f 51/63/51 68/51/68 52/50/52
f 52/50/52 53/39/53 36/49/36
f 52/50/52 68/51/68 53/39/53
f 53/39/53 68/51/68 69/40/69
f 53/39/53 70/31/70 54/29/54
f 54/29/54 55/22/55 38/30/38
f 54/29/54 70/31/70 55/22/55
f 55/22/55 70/31/70 71/23/71
f 55/22/55 72/15/72 56/16/56
f 56/16/56 57/9/57 40/18/40
f 56/16/56 72/15/72 57/9/57
f 57/9/57 72/15/72 73/8/73
f 57/9/57 74/3/74 58/1/58
f 58/19/58 59/21/59 42/27/42
f 58/19/58 74/10/74 59/21/59
f 59/21/59 74/10/74 75/14/75
f 59/154/59 76/146/76 60/148/60
f 60/148/60 61/140/61 44/149/44
f 60/148/60 76/146/76 61/140/61
f 61/140/61 76/146/76 77/138/77
f 61/140/61 78/125/78 62/127/62
f 62/127/62 63/115/63 46/126/46
f 62/127/62 78/125/78 63/115/63
f 63/115/63 78/125/78 79/114/79
f 63/115/63 80/100/80 64/99/64
f 64/99/64 49/88/49 48/98/48
f 64/99/64 80/100/80 49/88/49
f 65/89/65 66/80/66 49/88/49
f 65/89/65 81/92/81 66/80/66
f 66/80/66 81/92/81 82/81/82
f 66/80/66 83/66/83 67/65/67
f 67/65/67 68/51/68 51/63/51
f 67/65/67 83/66/83 68/51/68
f 68/51/68 83/66/83 84/52/84
f 68/51/68 85/41/85 69/40/69
f 69/40/69 70/31/70 53/39/53
f 69/40/69 85/41/85 70/31/70
f 70/31/70 85/41/85 86/33/86
f 70/31/70 87/25/87 71/23/71
f 71/23/71 72/15/72 55/22/55
f 71/23/71 87/25/87 72/15/72
f 72/15/72 87/25/87 88/17/88
f 72/15/72 89/11/89 73/8/73
f 73/8/73 74/3/74 57/9/57
f 73/8/73 89/11/89 74/3/74
f 74/3/74 89/11/89 90/6/90
f 74/10/74 91/5/91 75/14/75
f 75/152/75 76/146/76 59/154/59
f 75/152/75 91/150/91 76/146/76
f 76/146/76 91/150/91 92/145/92
f 76/146/76 93/135/93 77/138/77
f 77/138/77 78/125/78 61/140/61
f 77/138/77 93/135/93 78/125/78
f 78/125/78 93/135/93 94/123/94
f 78/125/78 95/112/95 79/114/79
f 79/114/79 80/100/80 63/115/63
f 79/114/79 95/112/95 80/100/80
f 80/100/80 81/92/81 65/89/65
f 80/100/80 95/112/95 96/101/96
f 81/90/81 98/103/98 82/93/82
f 81/90/81 112/104/112 97/102/97
f 82/81/82 83/66/83 66/80/66
f 82/93/82 98/103/98 83/95/83
f 83/95/83 98/103/98 99/107/99
f 83/95/83 100/109/100 84/105/84
f 84/52/84 85/41/85 68/51/68
f 84/105/84 100/109/100 85/116/85
f 85/116/85 100/109/100 101/117/101
f 85/116/85 102/121/102 86/130/86
f 86/33/86 87/25/87 70/31/70
f 86/130/86 102/121/102 87/136/87
f 87/136/87 102/121/102 103/128/103
f 87/136/87 104/132/104 88/142/88
f 88/17/88 89/11/89 72/15/72
f 88/142/88 104/132/104 89/144/89
f 89/144/89 104/132/104 105/134/105
f 89/144/89 106/133/106 90/143/90
f 90/2/90 91/5/91 74/10/74
f 90/143/90 106/133/106 91/137/91
f 91/137/91 106/133/106 107/129/107
f 91/137/91 108/122/108 92/131/92
f 92/145/92 93/135/93 76/146/76
f 92/131/92 108/122/108 93/120/93
f 93/120/93 108/122/108 109/119/109
f 93/120/93 110/110/110 94/106/94
f 94/123/94 95/112/95 78/125/78
f 94/106/94 110/110/110 95/96/95
f 95/96/95 110/110/110 111/108/111
f 95/96/95 112/104/112 96/94/96
f 96/101/96 81/92/81 80/100/80
f 96/94/96 112/104/112 81/90/81
f 97/102/97 98/103/98 81/90/81
f 97/102/97 114/118/114 98/103/98
f 98/103/98 114/118/114 99/107/99
f 99/107/99 100/109/100 83/95/83
f 99/107/99 114/118/114 100/109/100
f 100/109/100 114/118/114 101/117/101
f 101/117/101 102/121/102 85/116/85
f 101/117/101 114/118/114 102/121/102
f 102/121/102 114/118/114 103/128/103
f 103/128/103 104/132/104 87/136/87
f 103/128/103 114/118/114 104/132/104
f 104/132/104 114/118/114 105/134/105
f 105/134/105 106/133/106 89/144/89
f 105/134/105 114/118/114 106/133/106
f 106/133/106 114/118/114 107/129/107
f 107/129/107 108/122/108 91/137/91
f 107/129/107 114/118/114 108/122/108
f 108/122/108 114/118/114 109/119/109
f 109/119/109 110/110/110 93/120/93
f 109/119/109 114/118/114 110/110/110
f 110/110/110 114/118/114 111/108/111
f 111/108/111 112/104/112 95/96/95
f 111/108/111 114/118/114 112/104/112
f 112/104/112 114/118/114 97/102/97
